<svg width="77" height="57" viewBox="0 0 77 57" fill="none" xmlns="http://www.w3.org/2000/svg">
<g clip-path="url(#clip0_675_8324)">
<path d="M76.2265 23.4965C76.2265 27.7326 75.0442 30.8573 74.4095 32.4915C73.3306 35.2653 71.9861 37.3775 70.9377 38.8021C69.7389 40.4292 68.613 41.5454 67.1909 42.9653C65.5408 44.6136 64.0576 45.8969 62.9458 46.8082C60.9431 48.6566 50.9862 56.2388 38.0299 56.227C38.0299 56.227 23.9806 55.3817 12.8789 46.5727L12.8836 46.5656C14.3974 47.5734 16.0451 48.3835 17.7822 48.9745C19.8836 49.6903 21.0871 49.9964 21.0871 49.9964C25.2287 51.1385 31.2438 51.9697 37.3247 49.8693C41.1726 48.5412 45.0957 46.2854 46.8445 45.101C47.5896 44.5971 49.7192 43.116 52.2508 40.8625C54.5614 38.8045 56.8344 36.3297 60.2427 31.6791C60.6352 31.1422 61.599 29.6376 62.4757 27.264C63.5147 24.4525 62.8847 23.4941 62.7108 23.261C62.1419 22.5004 61.3004 22.3191 61.3004 22.3191C60.9055 22.2343 60.5671 22.2767 60.3602 22.3191C60.4918 22.0601 60.9479 21.0829 60.5953 19.9644C60.5483 19.8137 60.1158 18.8741 59.1849 18.5516C58.83 18.4291 58.4798 18.3161 57.7746 18.5516C57.2763 18.7187 56.8696 18.8859 56.5993 19.0225C57.0036 18.1772 56.9143 17.1764 56.3643 16.4323C56.3267 16.3805 56.2867 16.3311 56.2444 16.2816C55.4663 15.3868 54.0584 15.302 53.0735 15.9614L51.6631 16.9032C51.6561 16.7196 51.5715 15.0454 50.4879 14.5485C49.9002 14.2777 49.4301 14.2542 49.1951 14.2542C46.7035 14.2542 46.2686 18.7282 44.6115 22.0836C41.9577 27.4547 37.1578 30.0214 36.1494 30.5606C34.8143 31.2741 31.3543 33.066 26.7472 32.6799C26.2983 32.6422 22.1989 32.2442 18.5202 29.3833C15.9252 27.3653 15.7278 25.8229 15.6996 25.3802C15.6761 25.0247 15.6173 24.1299 16.1697 23.261C16.4776 22.7783 16.8608 22.4816 17.1099 22.3191C16.8278 22.2767 16.1908 22.1401 15.6996 21.6127C14.9192 20.7768 14.9615 19.4581 15.4645 18.5516C15.528 18.4385 16.1955 17.2776 17.58 17.1387C18.7553 17.021 19.5639 17.7274 19.6955 17.8451C19.5498 17.685 18.941 16.9786 18.9904 15.9614C19.0444 14.8499 19.8577 13.8916 20.8708 13.6066C22.1307 13.2511 23.1744 14.087 23.4564 14.3131C23.9641 14.7204 24.2486 15.189 24.3966 15.4904C25.1018 13.8421 25.807 13.6066 26.7472 13.6066C28.3926 13.6066 28.5853 15.3821 30.5081 15.7259C30.6585 15.7541 31.6293 15.9143 32.6236 15.4904C34.4312 14.7204 34.5487 12.7707 36.3845 9.8391C36.6525 9.41289 36.9792 8.92782 37.3764 8.40508C37.7737 7.88233 38.2085 7.39019 38.6716 6.92631C38.9325 6.66729 39.2028 6.42005 39.4802 6.17987L40.3781 5.40988C40.9587 4.95777 41.5628 4.53628 42.188 4.14539C45.5916 2.00731 49.6017 0.773438 53.8962 0.773438C66.2296 0.773438 76.2265 10.9458 76.2265 23.4965Z" fill="#F5F5CB"/>
<path d="M62.7107 23.261C62.8846 23.4941 63.5146 24.4525 62.4756 27.264C61.5989 29.6376 60.6351 31.1422 60.2426 31.6791C56.8343 36.3297 54.5613 38.8045 52.2507 40.8625C49.7191 43.116 47.5895 44.5971 46.8444 45.101C45.0956 46.2854 41.1725 48.5412 37.3246 49.8693C31.2437 51.9697 25.2287 51.1385 21.087 49.9964C21.087 49.9964 19.8835 49.6903 17.7821 48.9745C16.045 48.3835 14.3973 47.5734 12.8835 46.5656C10.9608 45.2917 9.25426 43.6976 7.85332 41.835C7.83922 41.8138 7.82277 41.7926 7.80631 41.7714C7.80161 41.7667 7.79456 41.7596 7.78751 41.7502C3.71164 36.9183 0.773438 31.3188 0.773438 24.5561C0.773438 11.4215 10.9279 0.773438 23.4563 0.773438C27.4711 0.773438 31.2414 1.86603 34.511 3.78512C34.8401 3.97821 35.5453 4.40206 36.3797 5.00957C37.0332 5.48523 37.8183 6.11158 38.6715 6.92631C38.2085 7.39019 37.7736 7.88233 37.3764 8.40508C36.9791 8.92782 36.6524 9.41289 36.3844 9.8391C34.5486 12.7707 34.4311 14.7204 32.6235 15.4904C31.6292 15.9143 30.6585 15.7541 30.508 15.7259C28.5853 15.3821 28.3925 13.6066 26.7471 13.6066C25.8069 13.6066 25.1017 13.8421 24.3966 15.4904C24.2485 15.189 23.9641 14.7204 23.4563 14.3131C23.1743 14.087 22.1306 13.2511 20.8707 13.6066C19.8576 13.8916 19.0443 14.8499 18.9903 15.9614C18.9409 16.9786 19.5497 17.685 19.6954 17.8451C19.5638 17.7274 18.7552 17.021 17.5799 17.1387C16.1955 17.2776 15.5279 18.4385 15.4644 18.5516C14.9614 19.4581 14.9191 20.7768 15.6995 21.6127C16.1908 22.1401 16.8278 22.2767 17.1098 22.3191C16.8607 22.4816 16.4775 22.7783 16.1696 23.261C15.6172 24.1299 15.676 25.0247 15.6995 25.3802C15.7277 25.8229 15.9251 27.3653 18.5202 29.3833C22.1988 32.2442 26.2982 32.6422 26.7471 32.6799C31.3542 33.066 34.8142 31.2741 36.1494 30.5606C37.1577 30.0214 41.9576 27.4547 44.6114 22.0836C46.2685 18.7282 46.7034 14.2542 49.195 14.2542C49.43 14.2542 49.9001 14.2777 50.4878 14.5485C51.5714 15.0454 51.656 16.7196 51.6631 16.9032L53.0734 15.9614C54.0583 15.302 55.4663 15.3868 56.2443 16.2816C56.2866 16.3311 56.3266 16.3805 56.3642 16.4323C56.9142 17.1764 57.0035 18.1772 56.5992 19.0225C56.8695 18.8859 57.2762 18.7187 57.7745 18.5516C58.4797 18.3161 58.8299 18.4291 59.1848 18.5516C60.1157 18.8741 60.5482 19.8137 60.5952 19.9644C60.9478 21.0829 60.4918 22.0601 60.3601 22.3191C60.567 22.2767 60.9055 22.2343 61.3004 22.3191C61.3004 22.3191 62.1418 22.5004 62.7107 23.261Z" fill="#8B4513"/>
<path d="M38.6715 6.92631C37.8183 6.11158 37.0332 5.48523 36.3797 5.00957C35.5453 4.40206 34.8401 3.97821 34.511 3.78512C31.2414 1.86603 27.4711 0.773438 23.4563 0.773438C10.9279 0.773438 0.773438 11.4215 0.773438 24.5561C0.773438 31.3188 3.71164 36.9183 7.78751 41.7502C7.79456 41.7596 7.80161 41.7667 7.80631 41.7714C7.82277 41.7926 7.83922 41.8138 7.85332 41.835C9.25426 43.6976 10.9608 45.2917 12.8835 46.5656C14.3973 47.5734 16.045 48.3835 17.7821 48.9745C19.8835 49.6903 21.087 49.9964 21.087 49.9964C25.2287 51.1385 31.2437 51.9697 37.3246 49.8693C41.1725 48.5412 45.0956 46.2854 46.8444 45.101C47.5895 44.5971 49.7191 43.116 52.2507 40.8625C54.5613 38.8045 56.8343 36.3297 60.2426 31.6791C60.6351 31.1422 61.5989 29.6376 62.4756 27.264C63.5146 24.4525 62.8846 23.4941 62.7107 23.261C62.1419 22.5004 61.3004 22.3191 61.3004 22.3191C60.9055 22.2343 60.567 22.2767 60.3601 22.3191C60.4918 22.0601 60.9478 21.0829 60.5952 19.9644C60.5482 19.8137 60.1157 18.8741 59.1848 18.5516C58.8299 18.4291 58.4797 18.3161 57.7745 18.5516C57.2762 18.7187 56.8695 18.8859 56.5992 19.0225C57.0035 18.1772 56.9142 17.1764 56.3642 16.4323C56.3266 16.3805 56.2866 16.3311 56.2443 16.2816C55.4663 15.3868 54.0583 15.302 53.0734 15.9614L51.6631 16.9032C51.656 16.7196 51.5714 15.0454 50.4878 14.5485C49.9001 14.2777 49.43 14.2542 49.195 14.2542C46.7034 14.2542 46.2685 18.7282 44.6114 22.0836C41.9576 27.4547 37.1578 30.0214 36.1494 30.5606C34.8142 31.2741 31.3542 33.066 26.7471 32.6799C26.2982 32.6422 22.1988 32.2442 18.5202 29.3833C15.9251 27.3653 15.7277 25.8229 15.6995 25.3802C15.676 25.0247 15.6172 24.1299 16.1696 23.261C16.4775 22.7783 16.8607 22.4816 17.1098 22.3191C16.8278 22.2767 16.1908 22.1401 15.6995 21.6127C14.9191 20.7768 14.9614 19.4581 15.4644 18.5516C15.5279 18.4385 16.1955 17.2776 17.5799 17.1387C18.7552 17.021 19.5638 17.7274 19.6954 17.8451C19.5497 17.685 18.9409 16.9786 18.9903 15.9614C19.0443 14.8499 19.8576 13.8916 20.8707 13.6066C22.1306 13.2511 23.1743 14.087 23.4563 14.3131C23.9641 14.7204 24.2485 15.189 24.3966 15.4904C25.1017 13.8421 25.8069 13.6066 26.7471 13.6066C28.3925 13.6066 28.5853 15.3821 30.508 15.7259C30.6585 15.7541 31.6292 15.9143 32.6235 15.4904C34.4311 14.7204 34.5486 12.7707 36.3844 9.8391C36.6524 9.41289 36.9791 8.92782 37.3764 8.40508C37.7736 7.88233 38.2085 7.39019 38.6715 6.92631ZM38.6715 6.92631C38.9324 6.66729 39.2027 6.42005 39.4801 6.17987L40.378 5.40988C40.9586 4.95777 41.5627 4.53628 42.188 4.14539C45.5916 2.00731 49.6016 0.773438 53.8961 0.773438C66.2295 0.773438 76.2264 10.9458 76.2264 23.4965C76.2264 27.7326 75.0441 30.8573 74.4094 32.4915C73.3305 35.2653 71.986 37.3775 70.9376 38.8021C69.7389 40.4292 68.6129 41.5454 67.1909 42.9653C65.5408 44.6136 64.0576 45.8969 62.9457 46.8082C60.9431 48.6566 50.9861 56.2388 38.0298 56.227C38.0298 56.227 23.9805 55.3817 12.8788 46.5727" stroke="black" stroke-width="2" stroke-miterlimit="10"/>
</g>
<defs>
<clipPath id="clip0_675_8324">
<rect width="77" height="57" fill="white"/>
</clipPath>
</defs>
</svg>
