<svg width="282" height="290" viewBox="0 0 282 290" fill="none" xmlns="http://www.w3.org/2000/svg">
<path d="M5.62098 282.097C8.87141 282.608 12.0535 283.637 15.3097 283.955C18.0421 284.222 20.9282 284.154 23.5695 283.517C24.6682 283.25 25.949 281.165 26.0287 279.841C26.1539 277.609 25.7156 275.194 24.8788 273.104C24.3949 271.888 22.6758 271.166 20.9794 269.791C21.2071 261.724 21.8276 252.907 27.2583 245.459C29.8939 241.84 33.1956 238.596 36.6282 235.687C42.6737 230.563 49.0038 225.773 55.3054 220.956C58.3224 218.649 61.4078 216.365 64.7208 214.525C66.9808 213.263 66.8441 211.764 66.292 209.883C65.0339 205.599 63.4912 201.384 62.5121 197.038C61.3964 192.067 61.6981 187.045 63.3546 182.17C63.5311 181.659 63.8897 181.199 64.2142 180.756C64.3679 180.551 64.6468 180.443 65.4779 179.864C65.2389 182.005 65.2502 183.681 64.8404 185.244C63.5709 190.033 64.6298 194.606 65.8138 199.197C66.8669 203.276 68.2957 207.321 68.7568 211.468C69.2635 216.024 66.5595 219.439 63.2351 222.41C59.9277 225.37 56.7968 228.529 53.683 231.688C51.4117 233.988 51.554 237.136 51.554 239.959C51.5597 245.567 51.9183 251.191 52.4193 256.781C52.7324 260.253 53.5521 263.678 54.184 267.116C55.2712 272.996 56.4553 278.864 57.4629 284.756C57.9353 287.534 59.6488 288.931 63.6734 289.465C70.402 290.369 77.0565 290.215 83.6087 288.295C84.2234 288.119 84.8553 287.949 85.436 287.693C88.4985 286.346 89.1247 283.682 86.9615 281.103C84.6902 278.398 81.7472 277.041 78.2178 276.955C77.5518 276.944 76.8801 277.007 76.2254 276.938C73.2027 276.62 72.4399 275.643 71.6714 272.604C70.4475 267.786 69.8384 262.94 69.9807 257.969C70.0889 254.265 71.0623 250.907 73.1287 247.811C74.0338 246.459 74.7169 244.936 75.3602 243.431C77.1135 239.329 80.7396 237.289 84.4113 235.511C92.4264 231.625 98.0904 225.137 103.72 218.621C107.443 214.314 111.183 209.957 114.348 205.242C119.5 197.583 122.688 188.931 125.75 180.284C128.824 171.603 130.896 162.712 130.378 153.395C130.35 152.94 130.435 152.486 130.504 151.543C132.547 152.952 132.57 154.872 132.576 156.531C132.581 159.519 132.599 162.581 131.972 165.479C130.714 171.308 129.069 177.057 127.492 182.812C127.083 184.295 126.462 185.749 125.711 187.09C124.663 188.959 125.426 189.902 127.157 190.402C129.525 191.084 131.898 191.896 134.323 192.22C141.035 193.118 147.758 194.14 154.509 194.459C162.661 194.839 170.841 194.504 179.01 194.555C189.387 194.612 199.605 193.521 209.419 189.988C212.061 189.039 214.446 187.374 216.825 186.107C216.444 183.318 215.55 180.846 217.725 178.659C218.015 181.284 218.385 183.903 218.584 186.533C218.846 189.982 218.806 193.47 219.222 196.902C219.626 200.259 220.429 203.577 221.072 206.906C222.33 213.422 223.514 219.962 224.897 226.449C225.597 229.739 226.696 232.937 227.567 236.187C228.222 238.658 228.808 241.147 229.406 243.629C229.514 244.084 229.406 244.612 229.588 245.021C232.15 250.691 234.751 256.344 237.324 262.008C237.586 262.588 237.802 263.195 237.945 263.815C238.73 267.258 240.922 268.979 244.519 269.007C250.889 269.053 257.151 268.28 263.328 266.724C266.174 266.002 266.749 264.053 265.411 261.372C263.31 257.168 260.151 255.23 255.5 255.941C252.711 256.361 251.322 255.117 250.195 252.646C247.85 247.51 246.313 242.158 245.442 236.636C245.163 234.858 246.056 232.915 245.874 231.102C245.396 226.33 244.531 221.592 244.007 216.826C243.711 214.127 243.284 211.292 243.779 208.684C244.912 202.787 245.948 196.867 245.294 190.908C244.201 180.988 247.144 171.83 249.66 162.508C251.356 156.224 252.352 149.753 253.963 143.447C254.772 140.294 254.208 137.436 253.434 134.465C253.178 133.488 253.286 132.397 253.309 131.363C253.514 122.131 253.736 112.899 253.958 103.673C253.98 102.724 254.02 101.781 254.049 100.838C252.984 100.026 253.092 99.4348 254.385 99.0712C255.842 95.4011 257.464 91.7424 257.271 87.6974C257.157 85.317 256.462 82.9649 256.303 80.5845C256.109 77.6814 256.013 74.7385 256.24 71.8411C256.497 68.5972 257.157 65.3873 257.658 62.0922C254.646 61.507 251.715 60.9332 248.783 60.3594C245.265 59.4163 241.969 57.604 238.087 58.0926C237 58.229 235.787 57.3938 234.632 57.0018C241.804 56.2178 244.121 56.6041 248.783 58.8255C251.886 59.1721 254.977 59.6834 258.085 59.8197C261.671 59.9788 261.944 59.5584 261.882 55.9508C261.876 55.5702 261.859 55.1952 261.842 54.8202C260.39 52.2921 259.178 49.5935 257.441 47.287C254.237 43.0317 250.702 39.0208 247.349 34.8792C245.333 32.3852 243.802 29.6298 243.352 26.329C244.61 27.5164 245.692 28.8344 246.711 30.1922C251.618 36.7313 256.508 43.2874 261.432 49.8151C261.591 50.0253 262.069 50.0026 262.4 50.0935C264.107 47.3665 265.753 44.5941 267.551 41.9296C270.916 36.9301 274.348 31.9704 277.798 27.0278C282.238 20.6535 282.386 13.9894 279.25 7.08107C278.64 5.75167 277.946 4.46203 277.269 3.16672C275.498 -0.230642 272.715 -0.747631 269.504 0.916962C265.36 3.06446 261.096 5.14946 257.396 7.94461C253.246 11.0806 248.857 10.9897 244.969 8.95019C237.831 5.20627 232.258 7.82531 226.565 11.7965C224.772 13.052 222.785 14.1201 220.747 14.9155C216.33 16.6369 212.493 19.2786 209.169 22.5055C205.15 26.4085 205.412 31.6239 206.482 36.487C207.478 41.0376 207.006 45.1111 205.429 49.4117C203.954 53.434 203.152 57.7063 202.099 61.8877C200.92 66.5747 200.118 71.3923 198.518 75.9373C197.721 78.2041 195.814 80.3345 193.896 81.9082C189.826 85.2431 185.556 88.3848 181.105 91.1856C178.133 93.0548 174.757 94.3217 171.473 95.6454C168.074 97.0259 164.357 97.7645 161.152 99.4745C155.198 102.656 148.68 103.69 142.304 105.389C133.418 107.763 124.401 108.405 115.271 108.871C108.627 109.206 101.904 109.434 95.3865 111.365C91.7774 112.439 88.1968 111.053 84.8269 109.831C79.6011 107.934 74.3127 106.048 69.3887 103.514C64.0491 100.764 58.8746 97.577 54.0189 94.0376C47.5066 89.2995 43.4535 82.6127 40.0722 75.3351C35.7743 66.0861 30.9243 57.0927 26.1539 48.0767C25.1691 46.2189 23.6777 44.5089 22.0781 43.1226C18.6569 40.1627 14.4159 39.7082 10.0839 39.998C7.91506 40.1457 6.94164 41.4694 6.78794 43.7135C6.48055 48.2925 7.80122 52.4682 9.65129 56.5701C12.5943 63.0807 15.2072 69.7505 18.4121 76.1248C22.6701 84.5841 27.0818 93.0036 32.0059 101.082C34.1861 104.656 37.5561 107.621 40.7951 110.394C45.6395 114.535 50.814 118.291 55.8917 122.154C58.6697 124.267 61.5387 126.267 64.7948 128.63C60.4685 135.397 55.8689 141.885 52.0493 148.804C49.3282 153.741 47.3472 159.15 45.5825 164.53C42.6794 173.393 40.1519 182.38 37.5845 191.351C34.9204 200.651 31.0894 209.23 23.7972 215.962C20.7745 218.751 17.4728 221.484 16.0668 225.489C14.6152 229.614 13.7044 233.932 12.4919 238.147C11.638 241.113 10.9947 244.192 9.7139 246.97C6.91887 253.026 3.60013 258.861 2.12007 265.434C1.24911 269.297 0.537546 273.206 0.0309103 277.126C-0.304949 279.705 2.13145 281.552 5.62098 282.097ZM253.092 12.1544C257.202 15.7563 257.35 17.989 253.747 21.1534C253.531 18.1708 253.314 15.1768 253.092 12.1544Z" fill="#020202"/>
<path d="M187.315 195.726C187.782 198.771 188.221 201.719 188.682 204.656C189.536 210.139 190.236 215.65 191.3 221.086C192.837 228.938 193.213 236.954 195.661 244.703C197.534 250.606 198.148 256.918 199.207 263.065C199.56 265.104 200.494 266.167 202.583 266.167C210.074 266.167 217.566 266.173 225.057 266.15C228.421 266.138 229.582 264.224 228.131 261.253C226.611 258.139 224.488 255.873 221.032 254.708C217.104 253.378 215.772 249.669 214.691 246.163C212.977 240.601 212.306 234.79 213.017 229.023C213.592 224.393 211.964 220.172 211.588 215.735C211.167 210.752 209.812 205.804 211.139 200.748C211.389 199.771 211.167 198.674 211.213 197.634C211.287 195.788 211.395 193.947 211.52 191.521C203.727 194.095 195.837 195.868 187.315 195.726Z" fill="#020202"/>
<path d="M200.512 49.8605C200.649 50.4627 201.685 51.1842 202.351 51.2297C202.789 51.2581 203.552 50.2468 203.74 49.5764C205.237 44.3554 205.556 39.0889 204.127 33.8168C203.871 33.7713 203.615 33.7259 203.364 33.6804C202.197 37.2539 200.814 40.7819 199.966 44.4349C199.579 46.1223 200.102 48.088 200.512 49.8605Z" fill="#060606"/>
<path d="M254.049 100.838C254.163 100.247 254.271 99.6565 254.385 99.0713C253.093 99.4349 252.984 100.026 254.049 100.838Z" fill="#111111"/>
</svg>
