<svg width="228" height="268" viewBox="0 0 228 268" fill="none" xmlns="http://www.w3.org/2000/svg">
<g clip-path="url(#clip0_636_146217)">
<path d="M0.431732 58.8948C-1.07811 68.2886 2.57729 75.4732 9.90297 81.0955C15.3364 85.2699 21.5396 87.7527 28.1054 89.3548C31.6615 90.2305 35.302 90.7977 38.9127 91.4495C41.4456 91.9023 43.0846 93.4397 44.0779 95.6836C45.6771 99.3008 45.7814 103.067 45.3394 106.958C44.9967 110.023 45.1904 113.143 45.0464 116.232C44.9123 119.098 44.6838 121.954 44.4107 124.81C44.1574 127.412 43.8097 130.01 43.4571 132.602C43.0101 135.851 42.5283 139.1 42.0416 142.339C41.5549 145.583 41.0433 148.827 40.5318 152.071C39.9457 155.793 39.4093 159.519 38.7537 163.221C38.0485 167.196 37.2191 171.152 36.4443 175.112C35.446 180.217 34.6017 185.367 33.4147 190.432C31.1797 199.965 28.8355 209.473 26.3622 218.947C24.4749 226.181 21.9966 233.226 18.7037 239.963C18.2021 240.998 17.5664 241.58 16.4191 241.903C13.4292 242.739 10.7324 244.157 8.73087 246.65C6.65981 249.237 6.49591 252.128 7.42467 255.163C7.54385 255.561 7.99084 255.959 8.38817 256.158C11.5469 257.731 14.9242 258.288 18.4256 258.089C18.7087 258.074 19.111 257.86 19.2302 257.626C21.2267 253.596 24.7133 251.441 28.8604 250.476C31.4529 249.869 31.7509 247.864 32.2773 246.048C34.7159 237.6 37.1595 229.151 39.315 220.628C40.3828 216.409 41.3314 212.15 42.2204 207.886C42.7518 205.324 43.2634 202.761 43.765 200.194C45.1854 192.915 46.3575 185.596 47.6488 178.292C48.518 173.401 49.4567 168.52 50.2563 163.619C50.9317 159.524 51.4483 155.4 52.0542 151.295C52.2032 150.295 52.382 149.29 52.6502 148.314C52.7495 147.966 53.1667 147.702 53.4349 147.404C53.5988 147.528 53.7627 147.653 53.9216 147.777C53.4796 150.922 53.0773 154.076 52.5906 157.211C52.0592 160.634 51.4532 164.047 50.8721 167.46C50.2116 171.356 49.551 175.247 48.8706 179.138C48.1803 183.068 47.5048 186.999 46.7549 190.92C45.6573 196.666 44.5646 202.408 43.3577 208.13C43.3478 208.19 43.3329 208.259 43.318 208.319C41.982 214.678 40.6808 221.046 39.0567 227.335C37.2836 234.172 35.1729 240.923 33.1713 247.7C32.9131 248.576 32.5257 249.426 32.0787 250.222C31.88 250.571 31.4231 250.864 31.0258 250.994C28.0558 251.954 25.19 253.088 22.7217 255.098C19.697 257.546 19.6126 261.174 20.9536 264.248C21.7333 266.045 23.5958 266.448 25.2347 266.97C30.5589 268.657 35.8533 267.776 41.1178 266.572C42.1409 266.338 43.1541 266.05 44.1673 265.786C45.7367 265.373 46.9734 264.592 47.8376 263.114C52.6254 254.899 57.6366 246.819 62.2406 238.51C65.9655 231.793 69.3279 224.867 72.6654 217.951C77.8754 207.155 82.385 196.064 86.1248 184.601H87.4906C78.5508 211.921 65.3745 237.102 50.2017 261.756H61.6446C62.3548 258.173 64.8133 255.81 67.9522 254.133C71.7317 252.108 75.844 251.118 80.1053 250.725C81.3122 250.611 82.5092 250.436 83.8899 250.272C83.7955 248.989 83.721 247.605 83.5968 246.227C83.428 244.341 83.1995 242.466 83.0406 240.58C82.9065 239.028 82.7327 237.465 82.7575 235.913C82.8866 228.121 83.6117 220.409 86.3682 213.046C89.3531 205.08 94.1806 198.502 101.059 193.387C107.272 188.765 114.285 186.178 121.74 184.591C123.667 184.183 125.664 184.093 127.625 183.854C127.74 183.979 127.844 184.108 127.958 184.233C127.69 184.541 127.457 185.053 127.144 185.118C124.785 185.571 122.386 185.815 120.041 186.332C112.229 188.074 105.107 191.263 99.0428 196.636C93.4902 201.552 89.5666 207.543 87.2572 214.558C85.7821 219.041 84.6398 223.628 84.5107 228.395C84.4113 232.072 84.1134 235.754 84.2524 239.421C84.3865 242.799 84.9974 246.158 85.3699 249.526C85.4394 250.153 85.3798 250.795 85.3798 251.412C82.7327 251.765 80.0855 251.984 77.4929 252.491C73.4203 253.282 69.4024 254.327 66.0748 257.044C63.3482 259.263 62.4393 262.203 62.7422 265.592C62.7671 265.91 63.1793 266.363 63.5021 266.453C64.9325 266.885 66.3827 267.348 67.8528 267.537C69.7848 267.776 71.7466 267.846 73.6935 267.861C78.8538 267.9 84.014 267.91 89.1743 267.861C93.9223 267.816 98.6704 267.716 103.418 267.567C107.953 267.423 112.502 267.293 117.022 266.955C121.606 266.612 126.185 266.104 130.744 265.497C134.022 265.059 137.41 264.736 140.499 263.656C148.574 260.83 156.64 257.835 162.734 251.382C165.63 248.317 167.979 244.819 169.573 240.928C171.222 236.913 172.762 232.818 173.919 228.639C175.25 223.813 175.518 218.862 175.155 213.792C174.554 205.349 171.882 197.547 168.436 189.984C165.446 183.417 161.805 177.172 157.544 171.356C153.819 166.276 149.677 161.509 145.997 156.4C143.34 152.708 140.941 148.787 138.8 144.772C135.934 139.403 133.223 133.935 130.829 128.348C126.93 119.228 123.677 109.869 121.318 100.211C118.333 88.0015 115.457 75.7618 112.15 63.6365C110.64 58.0988 108.435 52.7153 106.13 47.4462C103.97 42.5056 100.503 38.3958 96.5 34.7886C95.2683 33.6741 93.977 32.6242 92.6807 31.5794C92.4075 31.3605 92.0152 31.2012 91.6675 31.1813C87.5403 30.9873 84.2822 29.43 82.39 25.5143C82.1466 25.0117 81.3917 24.6236 80.7957 24.4445C74.4335 22.5688 68.1459 22.6633 61.8979 25.0515C57.6366 26.6835 54.1253 29.4648 50.5593 32.1864C44.6391 36.7041 39.007 41.6548 32.0985 44.7147C27.3704 46.8094 22.3988 48.0632 17.3826 49.1976C13.6875 50.0335 9.98741 50.8495 6.34195 51.8694C2.85542 52.8347 1.01779 55.3821 0.456573 58.8899L0.431732 58.8948ZM12.2522 64.2136C8.67126 64.2136 4.40498 61.9199 4.83211 56.7753C4.99602 54.8547 5.1748 54.5214 7.12666 54.5065C7.46936 54.5065 7.81206 54.5065 8.15474 54.5065L8.16467 54.4268C9.31691 54.5463 10.5039 54.5164 11.6065 54.8199C13.7868 55.412 15.9423 56.1086 18.0382 56.9494C18.515 57.1385 19.0762 58.1933 18.9421 58.661C18.0233 61.905 15.9125 64.2136 12.2522 64.2136ZM45.697 48.4065C44.6838 47.7298 44.4355 45.8491 45.0563 44.2719C45.5629 42.9932 46.2681 41.8936 48.0064 41.9284C48.4584 42.1374 49.0047 42.2419 49.3375 42.5752C51.1155 44.3365 50.0328 48.2821 47.5942 48.8244C47.0131 48.9538 46.2085 48.7448 45.697 48.4065ZM61.1678 52.3123C61.1678 52.0187 61.1579 51.7202 61.1678 51.4316C61.2374 50.0932 62.3151 48.7747 63.4723 48.6055C64.8729 48.4015 65.6924 48.8991 66.1443 50.5957C66.3778 51.4615 66.5069 52.6307 66.0996 53.3273C65.5434 54.2826 64.5501 55.2876 63.5418 55.5911C62.5038 55.8996 61.6198 54.8697 61.2622 53.7701C61.1182 53.3223 61.1927 52.8048 61.1629 52.3123H61.1678Z" fill="black"/>
<path d="M4.83762 56.7803C4.40553 61.92 8.67676 64.2187 12.2577 64.2187C15.923 64.2187 18.0288 61.9101 18.9476 58.666C19.0817 58.1983 18.5205 57.1435 18.0437 56.9545C15.9528 56.1136 13.7923 55.417 11.612 54.8249C10.5094 54.5214 9.32242 54.5513 8.17018 54.4319L8.16024 54.5115C7.81755 54.5115 7.47486 54.5115 7.13217 54.5115C5.18031 54.5264 5.00152 54.8548 4.83762 56.7803Z" fill="#FEFEFF"/>
<path d="M29.1386 12.2148C28.4334 15.7225 28.9549 19.2451 30.8223 22.4892C32.3421 25.1212 35.923 25.9919 38.6695 24.6087C39.8068 24.0316 41.0137 23.4843 42.2504 23.2206C44.5896 22.723 45.9654 24.4147 47.2219 25.9372C48.3741 27.3303 49.2383 28.9523 50.3012 30.5893C52.0295 29.3603 53.7529 27.8975 55.6949 26.8228C58.1781 25.4446 60.8352 24.3699 63.4228 23.1808C64.0436 22.8972 64.5602 22.8424 64.2075 21.7777C62.2755 15.8817 59.7128 10.3042 55.5707 5.66205C52.3077 2.01004 48.1606 -0.437905 43.0649 0.189007C36.0819 1.03982 30.7031 4.39828 29.1386 12.2098V12.2148Z" fill="black"/>
<path d="M45.0618 44.272C44.441 45.8542 44.6893 47.73 45.7025 48.4066C46.2141 48.745 47.0186 48.949 47.5997 48.8246C50.0383 48.2872 51.121 44.3417 49.343 42.5754C49.0152 42.247 48.4639 42.1425 48.012 41.9285C46.2737 41.8937 45.5684 42.9933 45.0618 44.272Z" fill="#FCFCFE"/>
<path d="M61.1734 51.4317C61.1585 51.7253 61.1734 52.0188 61.1734 52.3124C61.1983 52.8 61.1287 53.3224 61.2727 53.7702C61.6303 54.8698 62.5144 55.8997 63.5524 55.5912C64.5606 55.2877 65.5539 54.2827 66.1102 53.3274C66.5125 52.6308 66.3834 51.4616 66.1549 50.5958C65.7029 48.8992 64.8834 48.3967 63.4829 48.6056C62.3257 48.7748 61.2479 50.0933 61.1784 51.4317H61.1734Z" fill="#FDFDFE"/>
<path d="M84.4612 8.28926C83.0209 11.5532 82.4051 15.0709 82.4845 18.6234C82.5292 20.6235 82.9812 22.6535 83.5176 24.594C84.6897 28.848 91.2058 31.49 95.2684 28.7933C96.4058 28.042 97.4339 27.1414 98.5613 26.3802C98.9586 26.1165 99.5049 26.0866 99.9867 25.9523C100.101 26.2259 100.215 26.5095 100.329 26.7832C98.3576 28.2012 96.3859 29.6192 94.2851 31.1268C99.3063 35.0873 103.707 39.9035 106.831 45.8194L107.203 45.7149C107.496 42.8092 107.705 39.8886 108.102 36.9979C108.956 30.7238 109.274 24.4049 108.897 18.1059C108.499 11.4039 106.046 5.49801 100.076 1.77634C97.6425 0.263789 94.8314 0.159303 91.9458 0.771289C87.7391 1.65195 85.971 4.85119 84.4612 8.27931V8.28926Z" fill="black"/>
<path d="M175.275 230.833C175.319 230.843 175.692 230.933 176.054 230.918C179.62 230.833 183.211 230.977 186.742 230.574C191.923 229.977 196.914 228.574 201.781 226.569C210.14 223.131 216.423 217.091 222.457 210.697C224.036 209.026 225.367 207.105 226.733 205.239C227.225 204.563 227.548 203.737 227.806 202.931C227.94 202.498 227.965 201.756 227.712 201.547C227.334 201.239 226.599 201.06 226.147 201.209C223.267 202.189 220.346 203.095 217.585 204.354C213.795 206.08 210.175 208.175 206.415 209.976C201.568 212.299 196.517 213.951 191.153 214.708C186.454 215.369 181.845 215.334 177.256 214.091C177.107 214.046 176.943 214.071 176.914 214.081C176.362 219.738 175.826 225.211 175.28 230.823L175.275 230.833Z" fill="black"/>
</g>
<defs>
<clipPath id="clip0_636_146217">
<rect width="228" height="268" fill="white" transform="matrix(-1 0 0 1 228 0)"/>
</clipPath>
</defs>
</svg>
