<svg width="20" height="12" viewBox="0 0 20 12" fill="none" xmlns="http://www.w3.org/2000/svg">
<path d="M9.3418 0.0357958C9.34429 0.0240042 9.34471 0.0117915 9.34388 0H10.6344C10.6323 0.0122127 10.6327 0.0244253 10.636 0.0362169C10.2048 0.0362169 9.77348 0.0357958 9.3418 0.0357958Z" fill="#C3C3C3"/>
<path d="M19.9429 7.89976C19.7464 7.07056 19.4833 6.25737 19.2544 5.43575C19.0287 4.62719 18.7898 3.82157 18.595 3.00543C18.438 2.34847 18.1079 1.83554 17.5355 1.49611C17.021 1.19122 16.4719 0.950331 15.8937 0.805464C15.1831 0.627748 14.4654 0.475301 13.7452 0.341803C13.2195 0.244523 12.6862 0.180512 12.1538 0.128713C11.6497 0.0794417 11.1426 0.0655445 10.6364 0.0360657C10.2052 0.0360657 9.77389 0.0356445 9.3422 0.0356445C8.91926 0.0659656 8.49631 0.0958656 8.07336 0.126187C7.68497 0.154402 7.29366 0.161982 6.9086 0.215887C6.3487 0.294637 5.79129 0.395287 5.2368 0.507727C4.31264 0.695129 3.41056 0.955385 2.58215 1.42789C2.1055 1.69952 1.68963 2.03684 1.5277 2.59315C1.32705 3.28127 1.14888 3.97613 0.958636 4.66761C0.653499 5.7777 0.320471 6.88021 0.0507182 7.99872C-0.0941491 8.59967 0.0765278 9.17114 0.496143 9.63943C1.0677 10.2774 1.80203 10.659 2.58673 10.947C3.59913 11.3185 4.64026 11.5766 5.71053 11.708C6.40406 11.7931 7.09634 11.8933 7.79237 11.9539C8.29275 11.9977 8.79812 12.0015 9.30099 11.9994C10.1923 11.9956 11.0848 11.9965 11.9744 11.9523C12.6179 11.9207 13.2594 11.8297 13.8993 11.7468C14.455 11.6747 15.0158 11.6128 15.5594 11.4827C16.34 11.2961 17.1201 11.1003 17.8552 10.7533C18.4909 10.4531 19.0995 10.1292 19.5574 9.57037C19.9621 9.07555 20.0857 8.50113 19.9429 7.89976ZM2.43811 2.46597C2.71161 2.13833 3.10583 1.98462 3.48007 1.8149C4.28725 1.44852 5.15104 1.2746 6.01192 1.10109C6.37659 1.02782 6.75208 1.00634 7.1234 0.969703C7.73326 0.909482 8.34312 0.829889 8.95422 0.80799C9.54618 0.786513 10.1402 0.828205 10.7334 0.841259C10.8583 0.843786 10.9836 0.832837 11.1077 0.843786C11.889 0.910745 12.6746 0.949068 13.4493 1.06193C14.1978 1.17142 14.9446 1.32471 15.6743 1.52475C16.1659 1.65951 16.6376 1.88776 17.0988 2.11432C17.3765 2.25035 17.6275 2.45375 17.7328 2.77802C17.7412 2.80371 17.7524 2.82856 17.7578 2.84203C17.7187 3.1444 17.5389 3.3457 17.3136 3.48383C16.9852 3.68471 16.6359 3.85147 16.2896 4.02034C16.24 4.04435 16.1343 4.01992 16.0927 3.97865C15.3808 3.27074 14.4896 2.91952 13.5446 2.70222C12.8956 2.55272 12.2354 2.42512 11.5735 2.36911C10.7101 2.29541 9.83675 2.24277 8.97337 2.2912C8.16162 2.3371 7.35028 2.49208 6.55184 2.66179C5.7405 2.83445 4.95747 3.11576 4.27809 3.62406C4.14696 3.72219 4.04164 3.8561 3.90968 3.95296C3.84224 4.00266 3.7236 4.05151 3.65949 4.02455C3.2124 3.83715 2.76864 3.64049 2.43187 3.26568C2.13797 2.93889 2.18793 2.76581 2.43811 2.46597ZM15.4141 4.34124C11.7929 5.18139 8.22822 5.18265 4.66316 4.37072C4.654 4.34377 4.64484 4.3164 4.63527 4.28944C4.83009 4.16563 5.01117 4.00476 5.22223 3.92601C5.82917 3.69902 6.44111 3.47877 7.06512 3.30822C7.47267 3.19662 7.9031 3.14987 8.32647 3.12208C9.08077 3.07281 9.83841 3.02396 10.5927 3.04291C11.2288 3.05933 11.8636 3.1604 12.4964 3.24547C13.3385 3.35833 14.1411 3.61227 14.8971 4.00687C15.062 4.0932 15.2118 4.20901 15.4141 4.34124ZM19.0433 8.99679C18.8268 9.33496 18.4988 9.55352 18.1624 9.75145C17.3861 10.2088 16.5331 10.4741 15.6702 10.6851C14.9974 10.8493 14.3039 10.9298 13.6174 11.0304C13.207 11.0906 12.7932 11.1349 12.3794 11.1559C11.5818 11.1968 10.7838 11.222 9.98536 11.2414C9.47958 11.254 8.97171 11.2658 8.46675 11.238C7.88895 11.2069 7.31364 11.1252 6.73667 11.0767C5.77131 10.9963 4.82259 10.8215 3.88845 10.568C2.97887 10.3212 2.0851 10.0235 1.33329 9.42382C0.808773 9.00522 0.64101 8.58872 0.82709 7.88839C1.16928 6.59932 1.53727 5.31741 1.89569 4.03298C1.90985 3.9816 1.93524 3.93359 1.9623 3.86663C2.85731 4.64951 3.94423 4.96114 5.04572 5.21255C5.73551 5.37047 6.44153 5.46186 7.14422 5.55366C7.66499 5.62189 8.19117 5.65474 8.71569 5.68169C9.26685 5.71032 9.82051 5.74107 10.3713 5.72043C11.1772 5.69053 11.9852 5.64715 12.7853 5.5503C13.6283 5.4488 14.4725 5.31825 15.2988 5.12538C16.1655 4.92282 17.0118 4.63056 17.7441 4.0852C17.8361 4.01613 17.9272 3.9458 18.0322 3.86663C18.1658 4.3244 18.2982 4.76321 18.4214 5.20455C18.6491 6.01943 18.8681 6.83684 19.097 7.65172C19.2252 8.10822 19.3201 8.56388 19.0433 8.99679Z" fill="black"/>
<path d="M19.0972 7.65178C18.8682 6.8369 18.6492 6.0195 18.4215 5.20462C18.2983 4.76328 18.1659 4.32446 18.0323 3.8667C17.9274 3.94587 17.8362 4.0162 17.7442 4.08526C17.012 4.63062 16.1657 4.92288 15.299 5.12545C14.4727 5.31832 13.6284 5.44887 12.7854 5.55036C11.9854 5.64722 11.1773 5.6906 10.3714 5.7205C9.82067 5.74113 9.26701 5.71039 8.71585 5.68175C8.19133 5.6548 7.66514 5.62195 7.14437 5.55373C6.44168 5.46193 5.73566 5.37054 5.04588 5.21262C3.94439 4.96121 2.85747 4.64957 1.96245 3.8667C1.9354 3.93366 1.91 3.98167 1.89585 4.03304C1.53743 5.31748 1.16943 6.59939 0.827245 7.88846C0.641166 8.58879 0.808929 9.00528 1.33345 9.42388C2.08526 10.0236 2.97902 10.3213 3.88861 10.5681C4.82275 10.8216 5.77146 10.9964 6.73683 11.0768C7.3138 11.1252 7.88911 11.2069 8.46691 11.2381C8.97186 11.2659 9.47973 11.2541 9.98552 11.2415C10.784 11.2221 11.582 11.1968 12.3796 11.156C12.7934 11.1349 13.2071 11.0907 13.6176 11.0305C14.3041 10.9298 14.9976 10.8494 15.6703 10.6852C16.5333 10.4742 17.3862 10.2089 18.1626 9.75152C18.499 9.55359 18.827 9.33503 19.0435 8.99686C19.3203 8.56394 19.2254 8.10829 19.0972 7.65178ZM9.06303 6.92366C9.17667 6.75731 9.46683 6.61918 9.60628 6.65919C9.75032 6.70046 9.88353 6.94977 9.88602 7.18349C9.88686 7.26056 9.88602 7.33762 9.88602 7.41469C9.89144 7.41553 9.89685 7.41595 9.90226 7.4168C9.88353 7.55914 9.87229 7.70316 9.84398 7.8434C9.80818 8.01985 9.69703 8.13861 9.52011 8.16724C9.3153 8.20051 9.16169 8.1365 9.04263 7.93773C8.83241 7.58609 8.83574 7.25635 9.06303 6.92366ZM8.2904 8.85326C8.02232 8.56689 8.14096 7.8813 8.3083 7.67284C8.44027 7.50902 8.57806 7.59704 8.65632 7.68295C8.8936 7.94236 9.04804 8.25063 9.05387 8.61701C9.0572 8.78167 9.03639 8.9379 8.8603 9.00571C8.69753 9.06803 8.4053 8.97623 8.2904 8.85326ZM11.1345 9.51443C11.1932 9.94945 10.694 10.2901 10.2832 10.1718C10.0942 10.1175 9.87146 10.1436 9.67164 10.1777C9.36733 10.2299 9.07718 10.1217 8.92857 9.85638C8.77246 9.5776 8.81867 9.28786 9.03597 9.0474C9.19125 8.87558 9.35027 8.69997 9.46766 8.50162C9.70494 8.10155 10.2357 8.13524 10.4538 8.42413C10.6166 8.63975 10.8152 8.82757 10.9734 9.04571M11.8034 8.67681C11.6969 8.90843 11.5137 9.00908 11.271 9.01581C11.0321 9.03518 10.8443 8.77703 10.9338 8.50162C11.0162 8.2481 11.1336 8.00216 11.2631 7.76886C11.3801 7.55872 11.6561 7.55829 11.746 7.77223C11.8659 8.05901 11.9475 8.36391 11.8034 8.67681Z" fill="white"/>
<path d="M17.7577 2.84197C17.7186 3.14433 17.5392 3.34563 17.3135 3.48334C16.9851 3.68422 16.6358 3.85141 16.2895 4.01986C16.2404 4.04386 16.1342 4.01986 16.093 3.97816C15.3807 3.27025 14.4899 2.91861 13.5449 2.70131C12.8959 2.55223 12.2357 2.42463 11.5738 2.3682C10.7104 2.2945 9.83707 2.24186 8.97369 2.29029C8.16194 2.33619 7.3506 2.49117 6.55216 2.66088C5.74041 2.83354 4.95737 3.11486 4.278 3.62316C4.14687 3.72128 4.04155 3.8552 3.90958 3.95205C3.84215 4.00175 3.72351 4.0506 3.6594 4.02365C3.21272 3.83582 2.76855 3.63916 2.43177 3.26436C2.13788 2.93756 2.18825 2.76448 2.43802 2.46506C2.71152 2.13742 3.10574 1.98329 3.47998 1.81357C4.28757 1.44762 5.15095 1.27327 6.01182 1.10019C6.37649 1.02691 6.75198 1.00501 7.1233 0.968374C7.73316 0.908153 8.34302 0.82856 8.95454 0.806661C9.5465 0.785605 10.1405 0.826875 10.7333 0.83993C10.8582 0.842457 10.9835 0.831929 11.1076 0.842457C11.8889 0.909837 12.6745 0.947739 13.4492 1.06102C14.1977 1.17009 14.9441 1.3238 15.6738 1.52342C16.1658 1.65818 16.6371 1.88685 17.0987 2.113C17.3764 2.24902 17.627 2.45242 17.7323 2.77669C17.7407 2.80238 17.7519 2.82723 17.7573 2.8407L17.7577 2.84197Z" fill="white"/>
<path d="M15.4132 4.34157C11.7924 5.18172 8.22772 5.18341 4.66266 4.37147C4.6535 4.3441 4.64392 4.31715 4.63477 4.28978C4.82959 4.16639 5.01067 4.00552 5.22131 3.92634C5.82826 3.69936 6.44019 3.47911 7.06421 3.30855C7.47175 3.19737 7.90219 3.15021 8.32555 3.12241C9.07986 3.07314 9.8375 3.02429 10.5918 3.04324C11.2275 3.05924 11.8627 3.16074 12.4955 3.24538C13.3376 3.35824 14.1402 3.6126 14.8962 4.0072C15.061 4.09311 15.2109 4.20934 15.4128 4.34115L15.4132 4.34157Z" fill="white"/>
<path d="M11.1341 9.51428C11.1927 9.9493 10.6936 10.29 10.2827 10.1717C10.0938 10.1173 9.87104 10.1434 9.67122 10.1776C9.36692 10.2298 9.07677 10.1215 8.92816 9.85581C8.77205 9.57702 8.81826 9.28729 9.03556 9.04725C9.19083 8.87543 9.34985 8.69982 9.46724 8.50147C9.70453 8.1014 10.2353 8.13509 10.4534 8.42398C10.6162 8.63918 10.8148 8.827 10.9729 9.04556" fill="#010101"/>
<path d="M10.2069 6.81462C10.2177 6.77967 10.2381 6.71903 10.2935 6.6807C10.3705 6.62764 10.47 6.64617 10.5345 6.66597C10.8567 6.76451 11.0361 7.00792 11.0873 7.32966C11.1352 7.63119 11.0515 7.91966 10.7963 8.09695C10.7859 8.10411 10.5782 8.2195 10.3805 8.13359C10.199 8.05484 10.1411 7.85607 10.0962 7.70194C10.0158 7.4261 10.0795 7.22227 10.2065 6.81462H10.2069Z" fill="#010101"/>
<path d="M9.84364 7.84337C9.81617 7.94402 9.78328 8.02067 9.71376 8.08047C9.64133 8.14279 9.56057 8.16048 9.52019 8.16722C9.31538 8.20049 9.16135 8.13648 9.04271 7.93728C8.83249 7.58564 8.83582 7.2559 9.06269 6.92321C9.07435 6.90595 9.35576 6.57073 9.60594 6.65874C9.78661 6.72233 9.83906 6.96701 9.88569 7.18305C9.94688 7.46773 9.8886 7.67956 9.84364 7.84337Z" fill="#010101"/>
<path d="M9.05291 8.61729C9.05624 8.78195 9.03543 8.93818 8.85892 9.00599C8.69616 9.06873 8.40392 8.97693 8.28903 8.85396C8.02094 8.56759 8.13958 7.882 8.30735 7.67354C8.43889 7.50972 8.5771 7.59774 8.65536 7.68365C8.89223 7.94306 9.04708 8.25133 9.05291 8.61771V8.61729Z" fill="#010101"/>
<path d="M11.2701 9.01596C11.0311 9.03575 10.8434 8.77718 10.9329 8.50176C11.0153 8.24783 11.1327 8.00231 11.2626 7.769C11.3791 7.55886 11.6556 7.55886 11.7451 7.77237C11.8654 8.05916 11.9465 8.36406 11.8025 8.67695C11.6959 8.90857 11.5128 9.00922 11.2701 9.01554V9.01596Z" fill="#010101"/>
</svg>
