<svg width="282" height="269" viewBox="0 0 282 269" fill="none" xmlns="http://www.w3.org/2000/svg">
<path d="M5.62098 283.07C8.87141 283.583 12.0535 284.615 15.3097 284.934C18.0421 285.202 20.9282 285.133 23.5695 284.495C24.6682 284.227 25.949 282.135 26.0287 280.806C26.1539 278.566 25.7156 276.143 24.8788 274.045C24.3949 272.825 22.6758 272.101 20.9794 270.722C21.2071 262.627 21.8276 253.779 27.2583 246.305C29.8939 242.674 33.1956 239.419 36.6282 236.5C42.6737 231.358 49.0038 226.552 55.3054 221.718C58.3224 219.403 61.4078 217.111 64.7208 215.264C66.9808 213.999 66.8441 212.494 66.292 210.607C65.0339 206.308 63.4912 202.078 62.5121 197.717C61.3964 192.729 61.6981 187.69 63.3546 182.798C63.5311 182.285 63.8897 181.824 64.2142 181.379C64.3679 181.174 64.6468 181.065 65.4779 180.484C65.2389 182.633 65.2502 184.315 64.8404 185.882C63.5709 190.688 64.6298 195.277 65.8138 199.884C66.8669 203.977 68.2957 208.036 68.7568 212.197C69.2635 216.769 66.5595 220.196 63.2351 223.177C59.9277 226.147 56.7968 229.317 53.683 232.486C51.4117 234.795 51.554 237.954 51.554 240.787C51.5597 246.414 51.9183 252.057 52.4193 257.667C52.7324 261.15 53.5521 264.588 54.184 268.037C55.2712 273.937 56.4553 279.826 57.4629 285.738C57.9353 288.525 59.6488 289.928 63.6734 290.464C70.402 291.37 77.0565 291.216 83.6087 289.289C84.2234 289.113 84.8553 288.941 85.436 288.685C88.4985 287.334 89.1247 284.66 86.9615 282.072C84.6902 279.358 81.7472 277.996 78.2178 277.91C77.5518 277.899 76.8801 277.962 76.2254 277.893C73.2027 277.574 72.4399 276.594 71.6714 273.544C70.4475 268.709 69.8384 263.847 69.9807 258.858C70.0889 255.141 71.0623 251.772 73.1287 248.665C74.0338 247.309 74.7169 245.781 75.3602 244.27C77.1135 240.154 80.7396 238.107 84.4113 236.323C92.4264 232.424 98.0904 225.913 103.72 219.375C107.443 215.053 111.183 210.681 114.348 205.949C119.5 198.265 122.688 189.582 125.75 180.906C128.824 172.195 130.896 163.273 130.378 153.924C130.35 153.468 130.435 153.012 130.504 152.065C132.547 153.479 132.57 155.406 132.576 157.071C132.581 160.069 132.599 163.142 131.972 166.049C130.714 171.898 129.069 177.668 127.492 183.443C127.083 184.93 126.462 186.39 125.711 187.735C124.663 189.611 125.426 190.557 127.157 191.059C129.525 191.743 131.898 192.558 134.323 192.883C141.035 193.784 147.758 194.81 154.509 195.129C162.661 195.511 170.841 195.175 179.01 195.226C189.387 195.283 199.605 194.189 209.419 190.643C212.061 189.691 214.446 188.02 216.825 186.749C216.444 183.95 215.55 181.47 217.725 179.275C218.015 181.909 218.385 184.537 218.584 187.177C218.846 190.637 218.806 194.137 219.222 197.581C219.626 200.95 220.429 204.279 221.072 207.62C222.33 214.158 223.514 220.72 224.897 227.23C225.597 230.531 226.696 233.741 227.567 237.002C228.222 239.481 228.808 241.978 229.406 244.47C229.514 244.926 229.406 245.456 229.588 245.866C232.15 251.556 234.751 257.228 237.324 262.912C237.586 263.493 237.802 264.103 237.945 264.724C238.73 268.179 240.922 269.907 244.519 269.935C250.889 269.981 257.151 269.205 263.328 267.643C266.174 266.919 266.749 264.964 265.411 262.273C263.31 258.055 260.151 256.111 255.5 256.823C252.711 257.245 251.322 255.997 250.195 253.517C247.85 248.363 246.313 242.993 245.442 237.452C245.163 235.668 246.056 233.718 245.874 231.899C245.396 227.111 244.531 222.356 244.007 217.573C243.711 214.865 243.284 212.021 243.779 209.404C244.912 203.487 245.948 197.546 245.294 191.566C244.201 181.613 247.144 172.423 249.66 163.068C251.356 156.763 252.352 150.27 253.963 143.942C254.772 140.778 254.208 137.91 253.434 134.929C253.178 133.948 253.286 132.854 253.309 131.816C253.514 122.552 253.736 113.289 253.958 104.03C253.98 103.078 254.02 102.132 254.049 101.186C252.984 100.371 253.092 99.7776 254.385 99.4128C255.842 95.7301 257.464 92.0588 257.271 87.9998C257.157 85.6112 256.462 83.251 256.303 80.8624C256.109 77.9493 256.013 74.9963 256.24 72.0889C256.497 68.8337 257.157 65.6128 257.658 62.3063C254.646 61.7191 251.715 61.1433 248.783 60.5676C245.265 59.6212 241.969 57.8027 238.087 58.2929C237 58.4298 235.787 57.5917 234.632 57.1984C241.804 56.4117 244.121 56.7993 248.783 59.0283C251.886 59.3761 254.977 59.8892 258.085 60.026C261.671 60.1856 261.944 59.7638 261.882 56.1437C261.876 55.7618 261.859 55.3855 261.842 55.0093C260.39 52.4724 259.178 49.7646 257.441 47.45C254.237 43.1801 250.702 39.1554 247.349 34.9995C245.333 32.4968 243.802 29.732 243.352 26.4198C244.61 27.6113 245.692 28.9338 246.711 30.2963C251.618 36.8579 256.508 43.4367 261.432 49.9869C261.591 50.1978 262.069 50.175 262.4 50.2662C264.107 47.5298 265.753 44.7479 267.551 42.0742C270.916 37.0575 274.348 32.0807 277.798 27.121C282.238 20.7247 282.386 14.0377 279.25 7.10549C278.64 5.7715 277.946 4.47742 277.269 3.17764C275.498 -0.231437 272.715 -0.75021 269.504 0.920124C265.36 3.07503 261.096 5.16722 257.396 7.97201C253.246 11.1188 248.857 11.0276 244.969 8.98105C237.831 5.22423 232.258 7.85229 226.565 11.8371C224.772 13.097 222.785 14.1688 220.747 14.9669C216.33 16.6942 212.493 19.3451 209.169 22.5832C205.15 26.4996 205.412 31.7329 206.482 36.6128C207.478 41.1792 207.006 45.2666 205.429 49.5821C203.954 53.6183 203.152 57.9053 202.099 62.1011C200.92 66.8042 200.118 71.6385 198.518 76.1992C197.721 78.4738 195.814 80.6116 193.896 82.1907C189.826 85.537 185.556 88.6896 181.105 91.5001C178.133 93.3756 174.757 94.6469 171.473 95.9752C168.074 97.3605 164.357 98.1016 161.152 99.8175C155.198 103.01 148.68 104.048 142.304 105.752C133.418 108.135 124.401 108.779 115.271 109.247C108.627 109.583 101.904 109.811 95.3865 111.749C91.7774 112.827 88.1968 111.436 84.8269 110.21C79.6011 108.306 74.3127 106.413 69.3887 103.871C64.0491 101.112 58.8746 97.9135 54.0189 94.3619C47.5066 89.6074 43.4535 82.8976 40.0722 75.5949C35.7743 66.314 30.9243 57.2896 26.1539 48.2424C25.1691 46.3783 23.6777 44.6623 22.0781 43.2713C18.6569 40.3012 14.4159 39.8452 10.0839 40.1359C7.91506 40.2841 6.94164 41.6124 6.78794 43.8642C6.48055 48.4591 7.80122 52.6492 9.65129 56.7651C12.5943 63.2982 15.2072 69.991 18.4121 76.3873C22.6701 84.8758 27.0818 93.3243 32.0059 101.431C34.1861 105.017 37.5561 107.992 40.7951 110.774C45.6395 114.93 50.814 118.699 55.8917 122.575C58.6697 124.696 61.5387 126.703 64.7948 129.074C60.4685 135.864 55.8689 142.374 52.0493 149.318C49.3282 154.272 47.3472 159.699 45.5825 165.097C42.6794 173.991 40.1519 183.009 37.5845 192.011C34.9204 201.343 31.0894 209.951 23.7972 216.707C20.7745 219.506 17.4728 222.248 16.0668 226.267C14.6152 230.406 13.7044 234.738 12.4919 238.968C11.638 241.944 10.9947 245.034 9.7139 247.822C6.91887 253.899 3.60013 259.753 2.12007 266.349C1.24911 270.226 0.537546 274.148 0.0309103 278.081C-0.304949 280.67 2.13145 282.522 5.62098 283.07ZM253.092 12.1963C257.202 15.8106 257.35 18.051 253.747 21.2264C253.531 18.2334 253.314 15.2291 253.092 12.1963Z" fill="#020202"/>
<path d="M187.315 196.4C187.782 199.456 188.221 202.415 188.682 205.362C189.536 210.863 190.236 216.393 191.3 221.849C192.837 229.727 193.213 237.771 195.661 245.547C197.534 251.47 198.148 257.804 199.207 263.972C199.56 266.019 200.494 267.085 202.583 267.085C210.074 267.085 217.566 267.09 225.057 267.068C228.421 267.056 229.582 265.135 228.131 262.153C226.611 259.029 224.488 256.755 221.032 255.586C217.104 254.252 215.772 250.53 214.691 247.012C212.977 241.431 212.306 235.599 213.017 229.813C213.592 225.167 211.964 220.931 211.588 216.479C211.167 211.479 209.812 206.514 211.139 201.44C211.389 200.459 211.167 199.359 211.213 198.316C211.287 196.463 211.395 194.616 211.52 192.182C203.727 194.764 195.837 196.543 187.315 196.4Z" fill="#020202"/>
<path d="M200.512 50.0325C200.649 50.6368 201.685 51.3608 202.351 51.4064C202.789 51.4349 203.552 50.4202 203.74 49.7475C205.237 44.5084 205.556 39.2238 204.127 33.9335C203.871 33.8878 203.615 33.8422 203.364 33.7966C202.197 37.3824 200.814 40.9226 199.966 44.5882C199.579 46.2814 200.102 48.2539 200.512 50.0325Z" fill="#060606"/>
<path d="M254.049 101.186C254.163 100.593 254.271 100 254.385 99.4128C253.093 99.7777 252.984 100.371 254.049 101.186Z" fill="#111111"/>
</svg>
