<svg width="549" height="782" viewBox="0 0 549 782" fill="none" xmlns="http://www.w3.org/2000/svg">
<rect width="549" height="782" rx="45" fill="#FFE169" fill-opacity="0.8"/>
<g clip-path="url(#clip0_1474_10345)">
<path d="M148.576 303.256C146.563 315.419 151.437 324.721 161.204 332.001C168.449 337.406 176.72 340.62 185.474 342.695C190.216 343.829 195.07 344.563 199.884 345.407C203.261 345.993 205.446 347.984 206.771 350.889C208.903 355.573 209.042 360.449 208.453 365.487C207.996 369.455 208.254 373.495 208.062 377.495C207.883 381.206 207.579 384.904 207.215 388.601C206.877 391.971 206.413 395.334 205.943 398.69C205.347 402.897 204.705 407.103 204.056 411.297C203.407 415.497 202.725 419.698 202.043 423.898C201.261 428.717 200.546 433.542 199.672 438.335C198.732 443.482 197.626 448.604 196.593 453.732C195.262 460.341 194.136 467.009 192.553 473.567C189.573 485.91 186.448 498.221 183.15 510.487C180.633 519.854 177.329 528.976 172.939 537.699C172.27 539.039 171.422 539.792 169.892 540.211C165.906 541.293 162.31 543.129 159.641 546.357C156.88 549.707 156.662 553.45 157.9 557.379C158.059 557.895 158.655 558.41 159.185 558.668C163.396 560.704 167.899 561.425 172.568 561.167C172.945 561.148 173.482 560.871 173.641 560.568C176.303 555.35 180.951 552.561 186.481 551.311C189.938 550.525 190.335 547.929 191.037 545.577C194.288 534.639 197.546 523.7 200.42 512.664C201.844 507.201 203.109 501.687 204.294 496.166C205.003 492.848 205.685 489.531 206.354 486.206C208.248 476.782 209.81 467.305 211.532 457.848C212.691 451.515 213.943 445.196 215.009 438.85C215.909 433.548 216.598 428.208 217.406 422.893C217.605 421.598 217.843 420.297 218.201 419.034C218.333 418.583 218.889 418.242 219.247 417.855C219.465 418.016 219.684 418.177 219.896 418.338C219.306 422.41 218.77 426.494 218.121 430.553C217.413 434.985 216.605 439.404 215.83 443.824C214.949 448.868 214.068 453.906 213.161 458.943C212.241 464.033 211.34 469.122 210.34 474.198C208.877 481.639 207.42 489.073 205.811 496.482C205.797 496.559 205.778 496.649 205.758 496.727C203.976 504.96 202.241 513.206 200.076 521.348C197.712 530.2 194.897 538.942 192.229 547.716C191.884 548.85 191.368 549.952 190.772 550.982C190.507 551.433 189.898 551.813 189.368 551.981C185.408 553.224 181.587 554.693 178.296 557.296C174.263 560.465 174.15 565.161 175.938 569.143C176.978 571.468 179.461 571.99 181.647 572.667C188.746 574.85 195.805 573.71 202.824 572.151C204.188 571.848 205.539 571.475 206.89 571.133C208.983 570.599 210.632 569.587 211.784 567.674C218.167 557.038 224.849 546.576 230.988 535.817C235.954 527.121 240.438 518.153 244.888 509.199C251.834 495.219 257.847 480.859 262.833 466.017H264.654C252.735 501.391 235.166 533.994 214.936 565.915H230.193C231.14 561.277 234.418 558.217 238.603 556.046C243.643 553.424 249.126 552.142 254.807 551.633C256.417 551.485 258.013 551.259 259.853 551.047C259.728 549.385 259.628 547.594 259.463 545.809C259.238 543.368 258.933 540.939 258.721 538.497C258.542 536.487 258.311 534.465 258.344 532.455C258.516 522.366 259.483 512.381 263.158 502.847C267.138 492.533 273.574 484.016 282.746 477.394C291.03 471.409 300.381 468.059 310.32 466.004C312.89 465.476 315.552 465.36 318.168 465.05C318.32 465.212 318.459 465.379 318.611 465.54C318.254 465.939 317.942 466.603 317.525 466.687C314.38 467.273 311.181 467.589 308.056 468.259C297.639 470.513 288.143 474.643 280.057 481.6C272.654 487.965 267.423 495.722 264.343 504.805C262.376 510.609 260.853 516.549 260.681 522.721C260.549 527.481 260.151 532.249 260.337 536.996C260.516 541.371 261.33 545.719 261.827 550.08C261.92 550.892 261.84 551.723 261.84 552.522C258.311 552.979 254.781 553.263 251.324 553.92C245.894 554.944 240.537 556.297 236.1 559.814C232.465 562.688 231.253 566.495 231.657 570.882C231.69 571.294 232.239 571.881 232.67 571.997C234.577 572.557 236.511 573.156 238.471 573.401C241.047 573.71 243.662 573.8 246.258 573.82C253.139 573.871 260.019 573.884 266.899 573.82C273.23 573.762 279.561 573.633 285.892 573.44C291.937 573.253 298.003 573.085 304.029 572.647C310.142 572.203 316.247 571.546 322.326 570.76C326.697 570.193 331.213 569.774 335.332 568.376C346.099 564.717 356.854 560.839 364.979 552.483C368.84 548.515 371.972 543.986 374.098 538.948C376.296 533.75 378.349 528.448 379.892 523.036C381.667 516.787 382.024 510.377 381.541 503.813C380.74 492.881 377.177 482.779 372.581 472.987C368.595 464.484 363.741 456.399 358.059 448.868C353.092 442.29 347.57 436.119 342.663 429.503C339.12 424.723 335.921 419.646 333.067 414.447C329.246 407.496 325.631 400.416 322.439 393.182C317.24 381.373 312.903 369.256 309.757 356.751C305.778 340.942 301.943 325.095 297.533 309.395C295.52 302.225 292.58 295.255 289.507 288.432C286.627 282.035 282.004 276.714 276.667 272.044C275.025 270.601 273.303 269.241 271.575 267.888C271.21 267.605 270.687 267.399 270.224 267.373C264.721 267.122 260.377 265.105 257.854 260.035C257.529 259.385 256.523 258.882 255.728 258.65C247.245 256.222 238.861 256.344 230.531 259.436C224.849 261.549 220.167 265.151 215.413 268.674C207.519 274.524 200.01 280.934 190.798 284.896C184.494 287.608 177.865 289.231 171.177 290.7C166.25 291.782 161.317 292.839 156.456 294.16C151.808 295.409 149.357 298.708 148.609 303.249L148.576 303.256ZM164.337 310.143C159.562 310.143 153.874 307.173 154.443 300.511C154.662 298.025 154.9 297.593 157.503 297.574C157.959 297.574 158.416 297.574 158.873 297.574L158.887 297.471C160.423 297.625 162.006 297.587 163.476 297.98C166.383 298.746 169.257 299.648 172.051 300.737C172.687 300.982 173.435 302.348 173.256 302.953C172.031 307.153 169.217 310.143 164.337 310.143ZM208.93 289.676C207.579 288.8 207.248 286.365 208.075 284.322C208.751 282.667 209.691 281.243 212.009 281.288C212.612 281.559 213.34 281.694 213.784 282.126C216.154 284.406 214.711 289.515 211.459 290.217C210.684 290.384 209.612 290.114 208.93 289.676ZM229.557 294.733C229.557 294.353 229.544 293.966 229.557 293.593C229.65 291.86 231.087 290.153 232.63 289.933C234.498 289.669 235.59 290.314 236.193 292.51C236.504 293.631 236.676 295.145 236.133 296.047C235.391 297.284 234.067 298.585 232.723 298.978C231.339 299.378 230.16 298.044 229.683 296.62C229.491 296.041 229.591 295.371 229.551 294.733H229.557Z" fill="black"/>
<path d="M154.45 300.518C153.874 307.172 159.569 310.149 164.343 310.149C169.23 310.149 172.038 307.16 173.263 302.959C173.442 302.354 172.694 300.988 172.058 300.743C169.27 299.654 166.389 298.753 163.482 297.986C162.012 297.593 160.43 297.632 158.893 297.477L158.88 297.58C158.423 297.58 157.966 297.58 157.509 297.58C154.907 297.599 154.668 298.025 154.45 300.518Z" fill="#FEFEFF"/>
<path d="M186.852 242.816C185.911 247.357 186.607 251.918 189.097 256.119C191.123 259.527 195.897 260.654 199.559 258.863C201.076 258.116 202.685 257.407 204.334 257.066C207.453 256.421 209.287 258.612 210.963 260.583C212.499 262.387 213.651 264.487 215.068 266.607C217.373 265.015 219.671 263.121 222.26 261.73C225.571 259.945 229.114 258.554 232.564 257.014C233.392 256.647 234.08 256.576 233.61 255.197C231.034 247.564 227.617 240.342 222.094 234.331C217.744 229.603 212.214 226.433 205.42 227.245C196.109 228.347 188.938 232.695 186.852 242.809V242.816Z" fill="black"/>
<path d="M208.082 284.322C207.255 286.371 207.586 288.8 208.937 289.676C209.619 290.114 210.692 290.378 211.466 290.217C214.718 289.521 216.161 284.413 213.791 282.126C213.354 281.7 212.619 281.565 212.016 281.288C209.698 281.243 208.758 282.667 208.082 284.322Z" fill="#FCFCFE"/>
<path d="M229.564 293.592C229.544 293.972 229.564 294.353 229.564 294.733C229.597 295.364 229.505 296.04 229.697 296.62C230.173 298.044 231.352 299.377 232.736 298.978C234.081 298.585 235.405 297.284 236.147 296.047C236.683 295.145 236.511 293.631 236.206 292.51C235.604 290.313 234.511 289.663 232.644 289.933C231.101 290.152 229.664 291.859 229.571 293.592H229.564Z" fill="#FDFDFE"/>
<path d="M260.615 237.733C258.695 241.959 257.874 246.514 257.98 251.113C258.039 253.703 258.642 256.331 259.357 258.844C260.92 264.352 269.608 267.773 275.025 264.281C276.541 263.308 277.912 262.142 279.415 261.157C279.945 260.815 280.674 260.776 281.316 260.602C281.468 260.957 281.621 261.324 281.773 261.678C279.144 263.514 276.515 265.35 273.714 267.302C280.409 272.43 286.276 278.666 290.441 286.326L290.938 286.191C291.328 282.428 291.607 278.647 292.136 274.904C293.275 266.781 293.699 258.599 293.196 250.443C292.666 241.766 289.395 234.119 281.435 229.3C278.19 227.342 274.442 227.206 270.595 227.999C264.986 229.139 262.628 233.281 260.615 237.72V237.733Z" fill="black"/>
<path d="M381.7 525.877C381.759 525.89 382.256 526.006 382.74 525.987C387.494 525.877 392.282 526.064 396.99 525.542C403.897 524.769 410.552 522.952 417.042 520.356C428.187 515.905 436.564 508.084 444.61 499.806C446.715 497.641 448.49 495.154 450.311 492.739C450.967 491.862 451.397 490.793 451.742 489.749C451.92 489.189 451.954 488.229 451.616 487.959C451.113 487.559 450.132 487.327 449.53 487.52C445.689 488.79 441.795 489.962 438.113 491.592C433.061 493.827 428.233 496.539 423.22 498.872C416.757 501.88 410.023 504.019 402.871 504.998C396.606 505.855 390.461 505.81 384.342 504.199C384.143 504.141 383.925 504.173 383.885 504.186C383.15 511.511 382.435 518.597 381.707 525.864L381.7 525.877Z" fill="black"/>
</g>
<defs>
<clipPath id="clip0_1474_10345">
<rect width="304" height="347" fill="white" transform="matrix(-1 0 0 1 452 227)"/>
</clipPath>
</defs>
</svg>
