<svg width="422" height="353" viewBox="0 0 422 353" fill="none" xmlns="http://www.w3.org/2000/svg">
<path d="M415 0C276.729 26.0608 227.138 76.0853 207.5 117.169C189.37 155.096 197.58 183.679 166.448 214.188C127.023 252.817 81.8058 238.383 39.5594 279.116C15.2639 302.535 4.93372 331.686 0 353H415V0Z" fill="#FFE169"/>
<g clip-path="url(#clip0_1434_10224)">
<path d="M165.432 120.895C163.922 130.289 167.577 137.473 174.903 143.095C180.336 147.27 186.54 149.753 193.105 151.355C196.661 152.23 200.302 152.798 203.913 153.449C206.446 153.902 208.085 155.44 209.078 157.684C210.677 161.301 210.781 165.067 210.339 168.958C209.997 172.023 210.19 175.143 210.046 178.232C209.912 181.098 209.684 183.954 209.411 186.81C209.157 189.412 208.81 192.01 208.457 194.602C208.01 197.851 207.528 201.1 207.042 204.339C206.555 207.583 206.043 210.827 205.532 214.071C204.946 217.793 204.409 221.519 203.754 225.221C203.048 229.196 202.219 233.152 201.444 237.112C200.446 242.217 199.602 247.367 198.415 252.432C196.18 261.965 193.836 271.473 191.362 280.947C189.475 288.181 186.997 295.226 183.704 301.963C183.202 302.998 182.566 303.58 181.419 303.903C178.429 304.739 175.732 306.157 173.731 308.65C171.66 311.237 171.496 314.128 172.425 317.163C172.544 317.561 172.991 317.959 173.388 318.158C176.547 319.731 179.924 320.288 183.426 320.089C183.709 320.074 184.111 319.86 184.23 319.626C186.227 315.596 189.713 313.441 193.86 312.476C196.453 311.869 196.751 309.864 197.277 308.048C199.716 299.6 202.159 291.151 204.315 282.628C205.383 278.409 206.331 274.15 207.22 269.886C207.752 267.324 208.263 264.761 208.765 262.194C210.185 254.915 211.358 247.596 212.649 240.292C213.518 235.401 214.457 230.52 215.256 225.619C215.932 221.524 216.448 217.4 217.054 213.295C217.203 212.295 217.382 211.29 217.65 210.314C217.75 209.966 218.167 209.702 218.435 209.404C218.599 209.528 218.763 209.653 218.922 209.777C218.48 212.922 218.077 216.076 217.591 219.211C217.059 222.634 216.453 226.047 215.872 229.46C215.212 233.356 214.551 237.247 213.871 241.138C213.18 245.068 212.505 248.999 211.755 252.92C210.657 258.666 209.565 264.408 208.358 270.13C208.348 270.19 208.333 270.259 208.318 270.319C206.982 276.678 205.681 283.046 204.057 289.335C202.284 296.172 200.173 302.923 198.171 309.7C197.913 310.576 197.526 311.426 197.079 312.222C196.88 312.571 196.423 312.864 196.026 312.994C193.056 313.954 190.19 315.088 187.722 317.098C184.697 319.546 184.613 323.174 185.954 326.248C186.733 328.045 188.596 328.448 190.235 328.97C195.559 330.657 200.853 329.776 206.118 328.572C207.141 328.338 208.154 328.05 209.167 327.786C210.737 327.373 211.973 326.592 212.838 325.114C217.625 316.899 222.637 308.819 227.241 300.51C230.966 293.793 234.328 286.867 237.665 279.951C242.875 269.155 247.385 258.064 251.125 246.601H252.491C243.551 273.921 230.375 299.102 215.202 323.756H226.645C227.355 320.173 229.813 317.81 232.952 316.133C236.732 314.108 240.844 313.118 245.105 312.725C246.312 312.611 247.509 312.436 248.89 312.272C248.795 310.989 248.721 309.605 248.597 308.227C248.428 306.341 248.2 304.466 248.041 302.58C247.906 301.028 247.733 299.465 247.757 297.913C247.887 290.121 248.612 282.409 251.368 275.046C254.353 267.08 259.181 260.502 266.059 255.387C272.272 250.765 279.285 248.178 286.74 246.591C288.667 246.183 290.664 246.093 292.625 245.854C292.74 245.979 292.844 246.108 292.958 246.233C292.69 246.541 292.457 247.053 292.144 247.118C289.785 247.571 287.386 247.815 285.041 248.332C277.229 250.074 270.107 253.263 264.043 258.636C258.49 263.552 254.567 269.543 252.257 276.558C250.782 281.041 249.64 285.628 249.511 290.395C249.411 294.072 249.113 297.754 249.252 301.421C249.387 304.799 249.997 308.158 250.37 311.526C250.439 312.153 250.38 312.795 250.38 313.412C247.733 313.765 245.085 313.984 242.493 314.491C238.42 315.282 234.402 316.327 231.075 319.044C228.348 321.263 227.439 324.203 227.742 327.592C227.767 327.91 228.179 328.363 228.502 328.453C229.932 328.885 231.383 329.348 232.853 329.537C234.785 329.776 236.747 329.846 238.694 329.861C243.854 329.9 249.014 329.91 254.174 329.861C258.922 329.816 263.67 329.716 268.418 329.567C272.953 329.423 277.502 329.293 282.022 328.955C286.606 328.612 291.185 328.104 295.744 327.497C299.022 327.059 302.41 326.736 305.499 325.656C313.574 322.83 321.64 319.835 327.734 313.382C330.63 310.317 332.979 306.819 334.573 302.928C336.222 298.913 337.762 294.818 338.919 290.639C340.25 285.813 340.518 280.862 340.155 275.792C339.554 267.349 336.882 259.547 333.436 251.984C330.446 245.417 326.805 239.172 322.544 233.356C318.819 228.276 314.677 223.509 310.997 218.4C308.34 214.708 305.941 210.787 303.8 206.772C300.934 201.403 298.223 195.935 295.829 190.348C291.93 181.228 288.677 171.869 286.318 162.211C283.333 150.001 280.457 137.762 277.15 125.636C275.64 120.099 273.435 114.715 271.13 109.446C268.97 104.506 265.503 100.396 261.5 96.7886C260.268 95.6741 258.977 94.6242 257.681 93.5794C257.408 93.3605 257.015 93.2012 256.667 93.1813C252.54 92.9873 249.282 91.43 247.39 87.5143C247.147 87.0117 246.392 86.6236 245.796 86.4445C239.434 84.5688 233.146 84.6633 226.898 87.0515C222.637 88.6835 219.125 91.4648 215.559 94.1864C209.639 98.7041 204.007 103.655 197.099 106.715C192.37 108.809 187.399 110.063 182.383 111.198C178.687 112.033 174.987 112.849 171.342 113.869C167.855 114.835 166.018 117.382 165.457 120.89L165.432 120.895ZM177.252 126.214C173.671 126.214 169.405 123.92 169.832 118.775C169.996 116.855 170.175 116.521 172.127 116.506C172.469 116.506 172.812 116.506 173.155 116.506L173.165 116.427C174.317 116.546 175.504 116.516 176.606 116.82C178.787 117.412 180.942 118.109 183.038 118.949C183.515 119.138 184.076 120.193 183.942 120.661C183.023 123.905 180.913 126.214 177.252 126.214ZM210.697 110.407C209.684 109.73 209.435 107.849 210.056 106.272C210.563 104.993 211.268 103.894 213.006 103.928C213.458 104.137 214.005 104.242 214.337 104.575C216.116 106.337 215.033 110.282 212.594 110.824C212.013 110.954 211.209 110.745 210.697 110.407ZM226.168 114.312C226.168 114.019 226.158 113.72 226.168 113.432C226.237 112.093 227.315 110.775 228.472 110.606C229.873 110.402 230.692 110.899 231.144 112.596C231.378 113.461 231.507 114.631 231.1 115.327C230.543 116.283 229.55 117.288 228.542 117.591C227.504 117.9 226.62 116.87 226.262 115.77C226.118 115.322 226.193 114.805 226.163 114.312H226.168Z" fill="black"/>
<path d="M169.838 118.78C169.406 123.92 173.677 126.219 177.258 126.219C180.923 126.219 183.029 123.91 183.948 120.666C184.082 120.198 183.521 119.144 183.044 118.954C180.953 118.114 178.792 117.417 176.612 116.825C175.509 116.521 174.322 116.551 173.17 116.432L173.16 116.511C172.818 116.511 172.475 116.511 172.132 116.511C170.18 116.526 170.002 116.855 169.838 118.78Z" fill="#FEFEFF"/>
<path d="M194.139 74.2148C193.433 77.7225 193.955 81.2451 195.822 84.4892C197.342 87.1212 200.923 87.9919 203.669 86.6087C204.807 86.0316 206.014 85.4843 207.25 85.2206C209.59 84.723 210.965 86.4147 212.222 87.9372C213.374 89.3303 214.238 90.9523 215.301 92.5893C217.03 91.3603 218.753 89.8975 220.695 88.8228C223.178 87.4446 225.835 86.3699 228.423 85.1808C229.044 84.8972 229.56 84.8424 229.208 83.7777C227.276 77.8817 224.713 72.3042 220.571 67.6621C217.308 64.01 213.161 61.5621 208.065 62.189C201.082 63.0398 195.703 66.3983 194.139 74.2098V74.2148Z" fill="black"/>
<path d="M210.062 106.272C209.441 107.854 209.689 109.73 210.703 110.407C211.214 110.745 212.019 110.949 212.6 110.825C215.038 110.287 216.121 106.342 214.343 104.575C214.015 104.247 213.464 104.142 213.012 103.929C211.274 103.894 210.568 104.993 210.062 106.272Z" fill="#FCFCFE"/>
<path d="M226.173 113.432C226.159 113.725 226.173 114.019 226.173 114.312C226.198 114.8 226.129 115.322 226.273 115.77C226.63 116.87 227.514 117.9 228.552 117.591C229.561 117.288 230.554 116.283 231.11 115.327C231.512 114.631 231.383 113.462 231.155 112.596C230.703 110.899 229.883 110.397 228.483 110.606C227.326 110.775 226.248 112.093 226.178 113.432H226.173Z" fill="#FDFDFE"/>
<path d="M249.461 70.2893C248.021 73.5532 247.405 77.0709 247.485 80.6234C247.529 82.6235 247.981 84.6535 248.518 86.594C249.69 90.848 256.206 93.49 260.268 90.7933C261.406 90.042 262.434 89.1414 263.561 88.3802C263.959 88.1165 264.505 88.0866 264.987 87.9523C265.101 88.2259 265.215 88.5095 265.329 88.7832C263.358 90.2012 261.386 91.6192 259.285 93.1268C264.306 97.0873 268.707 101.904 271.831 107.819L272.203 107.715C272.496 104.809 272.705 101.889 273.102 98.9979C273.956 92.7238 274.274 86.4049 273.897 80.1059C273.499 73.4039 271.046 67.498 265.076 63.7763C262.642 62.2638 259.831 62.1593 256.946 62.7713C252.739 63.652 250.971 66.8512 249.461 70.2793V70.2893Z" fill="black"/>
<path d="M340.275 292.833C340.319 292.843 340.692 292.933 341.054 292.918C344.62 292.833 348.211 292.977 351.742 292.574C356.923 291.977 361.914 290.574 366.781 288.569C375.14 285.131 381.423 279.091 387.457 272.697C389.036 271.026 390.367 269.105 391.733 267.239C392.225 266.563 392.548 265.737 392.806 264.931C392.94 264.498 392.965 263.756 392.712 263.547C392.334 263.239 391.599 263.06 391.147 263.209C388.267 264.189 385.346 265.095 382.585 266.354C378.795 268.08 375.175 270.175 371.415 271.976C366.568 274.299 361.517 275.951 356.153 276.708C351.454 277.369 346.845 277.334 342.256 276.091C342.107 276.046 341.943 276.071 341.914 276.081C341.362 281.738 340.826 287.211 340.28 292.823L340.275 292.833Z" fill="black"/>
</g>
<defs>
<clipPath id="clip0_1434_10224">
<rect width="228" height="268" fill="white" transform="matrix(-1 0 0 1 393 62)"/>
</clipPath>
</defs>
</svg>
