<svg width="17" height="17" viewBox="0 0 17 17" fill="none" xmlns="http://www.w3.org/2000/svg">
<g clip-path="url(#clip0_723_9406)">
<path d="M16.9992 8.33542C16.9909 8.47352 16.9826 8.61233 16.9743 8.75043C16.9826 8.81243 16.9909 8.87514 16.9992 8.93785V9.1598C16.968 9.312 16.9258 9.46208 16.9078 9.61639C16.8184 10.3851 16.641 11.132 16.3188 11.8331C16.1019 12.3038 15.8594 12.7653 15.592 13.2085C15.2753 13.7327 14.8797 14.1991 14.4418 14.6247C13.7891 15.2575 13.0525 15.7683 12.2419 16.1713C11.6037 16.4891 10.9295 16.7026 10.2387 16.852C9.50703 17.0105 8.75733 17.026 8.01525 16.9767C7.09717 16.9154 6.21305 16.6758 5.3698 16.2939C5.16263 16.2002 4.95753 16.1002 4.74551 16.0008C4.66098 16.1424 4.57575 16.2876 4.48706 16.4299C4.39352 16.5807 4.1912 16.5927 4.09627 16.4468C3.59809 15.6795 3.10198 14.9101 2.60726 14.1399C2.52411 14.0096 2.63012 13.8109 2.78395 13.8187C3.24887 13.8433 3.71311 13.8807 4.17804 13.911C4.37828 13.9236 4.57783 13.9335 4.77808 13.9434C5.02474 13.9553 5.27141 13.9638 5.51739 13.9751C5.67052 13.9821 5.7696 14.1562 5.69754 14.3034C5.6234 14.4549 5.53679 14.5994 5.44256 14.7706C5.66428 14.8749 5.88392 14.9869 6.1105 15.082C6.61769 15.2948 7.14637 15.4463 7.6882 15.5189C8.09632 15.5738 8.5072 15.6041 8.92639 15.5703C9.35876 15.5358 9.79043 15.5076 10.2089 15.3956C10.5803 15.2969 10.9531 15.1884 11.3085 15.0426C11.8996 14.8002 12.447 14.4732 12.9465 14.0681C13.3366 13.7517 13.6955 13.4072 14.0129 13.0119C14.3649 12.5736 14.6628 12.1043 14.9095 11.5999C15.2012 11.0052 15.3806 10.371 15.5005 9.71996C15.5421 9.49167 15.5483 9.25634 15.5656 9.02382C15.5802 8.82653 15.6017 8.62712 15.5954 8.42983C15.5663 7.55401 15.4139 6.70496 15.0848 5.88762C14.8644 5.34155 14.5734 4.84128 14.2575 4.35158C14.1147 4.12963 14.1224 3.89429 14.2575 3.66952C14.3794 3.46519 14.5422 3.33977 14.7958 3.32568C15.1173 3.30736 15.3231 3.46307 15.4929 3.7125C15.9592 4.39597 16.3375 5.12665 16.5689 5.92355C16.7151 6.42664 16.7983 6.94875 16.9057 7.46382C16.9438 7.64772 16.9687 7.83374 16.9999 8.01905V8.33542H16.9992Z" fill="black"/>
<path d="M16.9727 8.74976C16.981 8.61165 16.9893 8.47355 16.9983 8.33545V8.74694C16.99 8.74835 16.9817 8.74905 16.9727 8.74976Z" fill="#3A3A3A"/>
<path d="M16.9727 8.74989C16.981 8.74989 16.99 8.74848 16.9983 8.74707V8.93731C16.99 8.8746 16.9817 8.8126 16.9727 8.74989Z" fill="#5B5B5B"/>
<path d="M14.1632 3.16927C13.7537 3.15729 13.3435 3.13052 12.934 3.10868C12.7497 3.09881 12.5647 3.08472 12.3804 3.07697C12.1026 3.06429 11.824 3.06358 11.5469 3.04174C11.4242 3.03187 11.2884 3.00369 11.2649 2.83881C11.2579 2.78879 11.2545 2.72749 11.2759 2.68591C11.3529 2.53654 11.4415 2.3935 11.542 2.22017C11.2108 2.07995 10.9011 1.91649 10.5727 1.81784C10.0973 1.67481 9.61371 1.54093 9.12453 1.47188C8.68247 1.40987 8.22724 1.41762 7.77964 1.43594C7.25997 1.45708 6.74377 1.55925 6.25112 1.72342C5.50142 1.97356 4.77943 2.29838 4.16553 2.81838C3.81077 3.11925 3.45671 3.42575 3.14214 3.76748C2.65227 4.29946 2.2788 4.91458 1.98294 5.58184C1.78824 6.02151 1.64204 6.47528 1.54226 6.94314C1.46812 7.2898 1.44387 7.64704 1.39814 7.99934C1.38497 8.10221 1.36419 8.20649 1.36904 8.30866C1.3829 8.61023 1.39121 8.91321 1.43348 9.21196C1.4896 9.60725 1.55404 10.0046 1.65451 10.3908C1.85337 11.1553 2.17972 11.8648 2.6488 12.4982C2.84281 12.7611 2.84766 13.169 2.70493 13.3593C2.41391 13.7461 1.85822 13.8292 1.52979 13.3536C1.01774 12.6124 0.617255 11.8141 0.363658 10.9432C0.223695 10.4626 0.0906606 9.97857 0.0622522 9.47478C0.032458 8.9576 -0.0174299 8.43831 0.00612827 7.92254C0.0373082 7.23625 0.172421 6.56194 0.378902 5.90384C0.631806 5.09707 0.988643 4.34174 1.46535 3.64981C1.69677 3.31513 1.96561 3.00721 2.22822 2.69578C2.68691 2.15323 3.23499 1.71215 3.82325 1.32814C4.6658 0.777844 5.57972 0.392425 6.56431 0.197249C6.93085 0.123971 7.30362 0.0753528 7.6757 0.0401226C8.00344 0.00982459 8.33672 -0.0148366 8.66376 0.0105292C9.10721 0.0450548 9.55204 0.105651 9.98648 0.200068C10.4299 0.295894 10.8664 0.431178 11.2967 0.578441C11.6092 0.685541 11.9065 0.840554 12.237 0.985702C12.307 0.86451 12.3936 0.741909 12.4525 0.607329C12.5488 0.388902 12.7864 0.39172 12.9098 0.582668C13.3906 1.32391 13.8736 2.06445 14.3531 2.80711C14.4598 2.97198 14.3579 3.17491 14.1653 3.16927H14.1632Z" fill="black"/>
<path d="M11.0489 7.81281C10.717 8.51953 10.3852 9.22554 10.0533 9.93155C9.7186 10.6425 9.38463 11.3534 9.04927 12.063C8.97305 12.225 8.89683 12.3871 8.80814 12.5421C8.69936 12.7309 8.48734 12.8155 8.33352 12.7457C8.14713 12.6612 8.07715 12.4717 8.11456 12.2427C8.15267 12.008 8.16168 11.7685 8.18662 11.5317C8.22543 11.1724 8.27046 10.813 8.30857 10.453C8.33352 10.2106 8.35153 9.96749 8.3737 9.7244C8.38756 9.57009 8.4035 9.41578 8.42013 9.24809H8.24413C7.5852 9.2495 6.92626 9.25161 6.26733 9.25232C5.99848 9.25232 5.85575 9.07757 5.91603 8.81757C6.11835 7.94316 6.32345 7.07016 6.52577 6.19645C6.65465 5.63981 6.78214 5.08317 6.91032 4.52583C6.94913 4.35743 7.11057 4.22285 7.28171 4.22214C7.78475 4.22073 8.28848 4.21862 8.79151 4.22214C9.12272 4.22426 9.24328 4.3997 9.16567 4.72946C8.97167 5.5475 8.78389 6.36766 8.59473 7.18641C8.58226 7.24067 8.57672 7.29563 8.5684 7.35059C8.57672 7.35834 8.58503 7.36679 8.59335 7.37384C9.23635 7.37736 9.88004 7.37877 10.523 7.38441C10.6339 7.38582 10.7468 7.39709 10.8556 7.41823C11.0372 7.45346 11.1286 7.6437 11.0503 7.8114L11.0489 7.81281Z" fill="black"/>
</g>
<defs>
<clipPath id="clip0_723_9406">
<rect width="17" height="17" fill="white"/>
</clipPath>
</defs>
</svg>
