<svg width="549" height="782" viewBox="0 0 549 782" fill="none" xmlns="http://www.w3.org/2000/svg">
<rect width="549" height="782" rx="45" fill="#FFE169" fill-opacity="0.8"/>
<g clip-path="url(#clip0_1436_10225)">
<path d="M107.589 734.775C100.392 734.775 93.7057 731.526 89.2407 725.851C84.7535 720.132 83.1319 712.788 84.8423 705.711L99.4813 644.645L98.5483 643.755C87.2414 633.096 83.2652 622.213 81.9323 614.958C79.1556 599.892 84.7535 586.985 91.2177 572.008C94.9941 563.284 99.659 554.917 105.124 547.128L106.101 545.726L105.012 544.413C89.5295 525.942 88.8408 510.831 89.8182 503.487C91.0178 494.296 96.8378 485.528 109.855 466.545C115.786 457.911 122.073 449.454 128.581 441.398L129.981 439.662L128.248 438.26C120.096 431.673 93.5502 407.438 94.5276 372.121C95.3051 344.504 112.432 325.877 123.783 313.526C133.979 302.421 141.066 298.593 164.501 285.864C172.231 281.68 181.85 276.45 193.89 269.73C214.038 258.469 227.077 250.725 236.585 245.072C254.2 234.613 257.866 232.432 268.573 230.496C271.661 229.939 281.013 228.226 293.252 228.226C309.269 228.226 332.127 231.274 349.986 245.829C354.807 249.745 356.362 252.127 360.138 257.846C364.203 264.01 371.023 274.358 387.35 294.476C393.103 301.575 397.124 306.315 400.367 310.121C405.632 316.308 408.809 320.046 413.918 327.501C426.202 345.416 434.332 357.233 438.731 374.191C442.129 387.298 447.883 420.88 428.068 449.788C422.781 457.488 416.095 464.209 408.209 469.772L406.343 471.085L407.676 472.91C438.086 514.37 460.167 557.209 473.295 600.204C485.224 639.327 485.335 664.051 473.606 680.408C470.763 684.391 467.231 687.93 463.099 690.979L461.744 691.98L466.476 704.42C469.141 711.43 468.231 718.974 463.988 725.161C459.767 731.281 453.125 734.797 445.706 734.797H107.589V734.775Z" fill="white"/>
<path d="M293.252 230.451C308.913 230.451 331.238 233.411 348.586 247.542C353.14 251.236 354.54 253.373 358.294 259.07C362.381 265.279 369.245 275.671 385.617 295.878C391.37 302.977 395.413 307.74 398.679 311.567C403.899 317.709 407.053 321.404 412.096 328.77C424.691 347.107 432.288 358.168 436.575 374.769C439.885 387.588 445.528 420.412 426.224 448.542C421.092 456.019 414.584 462.562 406.92 467.97L403.21 470.573L405.898 474.245C436.153 515.504 458.123 558.099 471.185 600.871C486.201 650.075 479.404 668.546 471.829 679.117C469.119 682.9 465.742 686.305 461.81 689.176L459.078 691.179L460.278 694.339L464.409 705.199C466.808 711.519 465.987 718.329 462.166 723.87C458.367 729.389 452.392 732.549 445.728 732.549H107.589C101.08 732.549 95.038 729.612 90.9951 724.471C86.93 719.286 85.4639 712.632 87.0188 706.223L101.369 646.403L101.969 643.889L100.081 642.108C89.218 631.871 85.4194 621.456 84.131 614.535C81.4876 600.137 86.93 587.497 93.2609 572.876C96.9706 564.286 101.569 556.052 106.945 548.396L108.899 545.592L106.7 542.966C91.7726 525.14 91.084 510.742 91.9947 503.754C93.1276 495.075 98.8366 486.463 111.654 467.769C117.541 459.179 123.827 450.767 130.291 442.778L133.09 439.306L129.625 436.502C121.672 430.071 95.7711 406.459 96.7263 372.165C97.4815 345.371 114.275 327.101 125.382 315.017C135.334 304.179 142.331 300.396 165.522 287.8C173.253 283.616 182.871 278.386 194.934 271.643C215.104 260.36 228.143 252.616 237.673 246.941C255 236.66 258.621 234.501 268.928 232.632C271.949 232.075 281.168 230.406 293.207 230.406M293.207 225.956C280.768 225.956 271.149 227.714 268.128 228.248C251.134 231.341 250.624 235.369 192.757 267.749C144.242 294.899 136 296.857 122.094 311.99C110.921 324.141 93.061 343.569 92.2613 372.032C91.195 410.42 122.006 436.079 126.804 439.974C122.183 445.671 115.475 454.305 107.966 465.255C95.2379 483.792 88.8626 493.273 87.552 503.176C86.8856 508.25 85.7082 524.896 103.257 545.837C99.2809 551.489 93.9273 560.013 89.1291 571.118C82.5539 586.317 76.8227 599.625 79.7105 615.359C80.6879 620.678 83.9089 633.051 96.9928 645.38L82.6427 705.199C78.7553 721.422 90.9729 737.022 107.544 737.022H445.683C462.81 737.022 474.628 719.753 468.519 703.641L464.387 692.781C467.408 690.556 471.584 686.995 475.383 681.721C486.423 666.299 488.778 643.488 475.383 599.558C466.853 571.629 449.037 525.563 409.43 471.597C414.895 467.747 422.892 461.204 429.845 451.056C451.348 419.7 443.217 382.847 440.84 373.634C436.353 356.298 428.267 344.503 415.717 326.233C407.364 314.082 404.121 311.679 389.016 293.052C357.85 254.574 361.915 252.705 351.341 244.07C333.326 229.383 310.556 226 293.252 226L293.207 225.956Z" fill="black"/>
<path d="M253.912 370.941C256.755 379.131 259.954 387.588 267.373 392.706C274.793 397.824 283.722 398.025 292.186 396.934C294.985 396.578 296.695 397.068 298.783 398.959C300.405 400.428 301.893 401.986 303.67 403.299C307.18 405.903 311.29 407.728 315.533 408.796C325.662 411.333 336.147 409.641 346.077 407.038C349.009 406.281 347.765 401.719 344.833 402.498C335.436 404.946 325.484 406.682 315.932 404.033C311.712 402.854 307.736 400.873 304.47 397.891C301.916 395.555 299.628 392.862 296.051 392.194C292.23 391.482 288.01 392.929 284.122 392.84C279.946 392.751 275.681 391.949 271.971 389.969C264.241 385.874 261.198 377.506 258.488 369.695C257.51 366.847 252.956 368.071 253.956 370.941H253.912Z" fill="black"/>
<path d="M298.317 394.442L301.871 376.127C302.115 374.88 301.515 373.59 300.227 373.234C299.072 372.922 297.584 373.634 297.339 374.88L293.785 393.196C293.541 394.442 294.14 395.733 295.429 396.089C296.584 396.4 298.072 395.688 298.317 394.442Z" fill="black"/>
<path d="M300.627 373.968C295.274 368.694 290.964 362.507 287.921 355.608C286.633 352.648 283.634 346.684 286.611 343.88C288.432 342.167 291.12 343.702 292.986 344.57C294.674 345.371 296.385 346.106 298.14 346.729C305.581 349.355 313.467 350.223 321.064 352.27C324.552 353.205 328.906 354.229 331.594 356.81C334.77 359.881 330.594 362.151 328.017 363.442C319.265 367.848 310.224 371.676 301.005 375.014C298.184 376.038 299.406 380.6 302.249 379.554C312.312 375.904 322.775 371.965 332.082 366.624C335.303 364.777 338.347 361.639 337.391 357.589C336.436 353.539 332.638 351.424 329.172 350C319.62 346.061 309.113 345.594 299.406 342.167C295.163 340.676 290.542 337.093 285.877 338.851C281.612 340.453 280.302 345.327 280.946 349.422C281.79 354.629 284.5 359.926 287.188 364.443C289.876 368.961 293.408 373.456 297.295 377.306C299.45 379.442 302.782 376.104 300.627 373.968Z" fill="black"/>
<path d="M278.969 581.132C276.036 601.939 274.97 622.903 274.526 643.889C274.304 654.237 274.215 664.563 274.148 674.911C274.104 684.302 274.193 693.716 275.348 703.062C276.614 713.344 279.146 723.336 283.922 732.571C285.322 735.264 289.387 732.883 287.987 730.19C279.613 713.922 278.813 695.273 278.858 677.337C278.902 657.263 279.08 637.146 280.213 617.117C280.857 605.5 281.879 593.906 283.5 582.4C283.922 579.44 279.391 578.15 278.969 581.154V581.132Z" fill="black"/>
<path d="M378.664 636.211C375.554 640.617 372.511 645.068 370.023 649.875C367.535 654.682 365.758 660.156 364.114 665.542C360.871 676.113 355.806 685.86 348.675 694.339C347.609 695.607 347.831 697.877 349.719 698.278C365.602 701.638 376.82 717.617 374.821 733.729C374.443 736.733 379.153 736.711 379.53 733.729C381.774 715.68 368.69 697.499 350.986 693.738L352.03 697.677C358.96 689.421 364.336 680.007 367.735 669.748C369.601 664.14 371 658.443 373.666 653.124C376.332 647.805 379.464 643.265 382.751 638.592C384.506 636.122 380.419 633.741 378.686 636.211H378.664Z" fill="black"/>
<path d="M189.758 733.395C185.848 725.584 188.802 716.081 194.178 709.739C200.065 702.795 208.328 698.523 216.281 694.361C217.325 693.805 217.858 692.136 217.125 691.134C210.528 682.032 204.241 672.819 199.265 662.693C194.289 652.568 190.691 642.22 188.136 631.426C187.447 628.466 182.894 629.713 183.604 632.673C186.181 643.533 189.913 654.103 194.778 664.162C199.643 674.221 206.285 684.124 213.06 693.493L213.904 690.266C204.708 695.073 195.133 700.214 188.914 708.849C183.338 716.593 181.294 727.008 185.693 735.754C187.048 738.469 191.113 736.088 189.758 733.373V733.395Z" fill="black"/>
<path d="M219.458 732.438L218.17 724.493C218.081 723.937 217.548 723.358 217.081 723.091C216.57 722.802 215.837 722.668 215.259 722.846C214.682 723.024 214.149 723.38 213.86 723.937C213.549 724.538 213.527 725.094 213.616 725.762L214.904 733.706C214.993 734.263 215.526 734.841 215.993 735.108C216.503 735.398 217.237 735.531 217.814 735.353C218.392 735.175 218.925 734.819 219.214 734.263C219.525 733.662 219.547 733.105 219.458 732.438Z" fill="black"/>
<path d="M238.429 733.039L237.007 722.246C236.918 721.6 236.807 721.066 236.318 720.577C235.918 720.176 235.23 719.864 234.652 719.887C233.519 719.931 232.12 720.933 232.298 722.246L233.719 733.039C233.808 733.684 233.919 734.218 234.408 734.708C234.808 735.108 235.496 735.42 236.074 735.398C237.207 735.353 238.606 734.352 238.429 733.039Z" fill="black"/>
<path d="M258.132 730.591C257.977 730.279 257.821 729.945 257.666 729.634C257.577 729.456 257.51 729.256 257.421 729.078C257.221 728.61 257.599 729.523 257.421 729.078C257.155 728.388 256.888 727.698 256.666 727.008C256.222 725.628 255.866 724.226 255.622 722.802C255.533 722.246 255 721.667 254.534 721.4C254.023 721.111 253.29 720.977 252.712 721.155C251.401 721.578 250.846 722.757 251.068 724.048C251.624 727.164 252.668 730.146 254.067 732.972C254.622 734.085 256.266 734.485 257.288 733.818C258.421 733.083 258.732 731.77 258.132 730.591Z" fill="black"/>
<path d="M323.174 733.795C324.729 729.79 325.417 725.406 325.217 721.111C325.151 719.887 324.173 718.685 322.863 718.752C321.641 718.796 320.442 719.798 320.508 721.111C320.553 722.157 320.575 723.203 320.508 724.248C320.486 724.694 320.442 725.139 320.397 725.584C320.397 725.673 320.264 726.563 320.353 726.073C320.33 726.296 320.286 726.518 320.242 726.741C319.908 728.722 319.375 730.68 318.642 732.549C318.198 733.706 319.131 735.198 320.286 735.442C321.641 735.754 322.707 735.019 323.174 733.795Z" fill="black"/>
<path d="M344.899 733.15C346.899 730.035 348.298 726.496 348.987 722.846C349.209 721.645 348.654 720.243 347.343 719.953C346.188 719.686 344.677 720.309 344.455 721.6C344.144 723.292 343.678 724.961 343.033 726.585C342.989 726.696 342.945 726.808 342.9 726.897C342.811 727.142 342.811 727.119 342.945 726.808C342.878 726.874 342.767 727.186 342.745 727.275C342.545 727.698 342.345 728.098 342.145 728.521C341.745 729.278 341.323 730.035 340.856 730.769C340.19 731.815 340.612 733.417 341.701 733.996C342.878 734.619 344.211 734.263 344.922 733.15H344.899Z" fill="black"/>
<path d="M363.803 732.482L364.514 723.959C364.625 722.735 363.359 721.556 362.159 721.6C360.804 721.667 359.916 722.646 359.805 723.959L359.094 732.482C358.983 733.706 360.249 734.886 361.448 734.841C362.803 734.775 363.692 733.795 363.803 732.482Z" fill="black"/>
<path d="M347.432 571.874C346.854 580.242 345.921 588.587 344.589 596.888C344.389 598.134 344.922 599.425 346.232 599.781C347.343 600.092 348.92 599.403 349.12 598.134C350.52 589.433 351.519 580.665 352.119 571.874C352.319 568.848 347.61 568.848 347.41 571.874H347.432Z" fill="black"/>
<path d="M406.387 571.785C411.052 578.016 415.739 584.27 420.826 590.167C423.292 593.038 425.891 595.82 428.601 598.446C431.311 601.072 434.399 603.475 436.82 606.457C438.73 608.816 442.04 605.456 440.152 603.119C437.864 600.293 434.998 598.045 432.377 595.53C429.756 593.016 427.046 590.145 424.558 587.274C419.56 581.532 415.006 575.457 410.452 569.382C409.675 568.358 408.431 567.846 407.231 568.536C406.232 569.115 405.632 570.739 406.387 571.763V571.785Z" fill="black"/>
<path d="M206.307 571.34C208.018 593.794 215.348 615.514 227.744 634.319C229.41 636.834 233.497 634.475 231.809 631.938C219.88 613.845 212.661 592.971 211.017 571.34C210.795 568.336 206.085 568.313 206.307 571.34Z" fill="black"/>
<path d="M142.442 575.279C140.754 585.672 137.244 595.642 132.002 604.788C130.491 607.414 134.556 609.795 136.067 607.169C141.509 597.711 145.241 587.319 146.996 576.547C147.196 575.301 146.663 574.011 145.352 573.654C144.219 573.343 142.664 574.033 142.465 575.301L142.442 575.279Z" fill="black"/>
<path d="M111.032 615.692C109.499 623.059 104.879 629.29 100.591 635.298C95.9043 641.841 90.9284 648.161 85.6638 654.259C83.6867 656.551 87.0188 659.889 88.9958 657.597C94.5049 651.188 99.7473 644.556 104.657 637.68C109.188 631.337 113.942 624.728 115.564 616.961C116.186 614.001 111.632 612.733 111.032 615.715V615.692Z" fill="black"/>
<path d="M128.248 668.724C130.159 681.943 123.45 694.561 117.43 705.822C116.008 708.492 120.051 710.874 121.495 708.203C128.226 695.629 134.935 682.143 132.802 667.478C132.358 664.474 127.826 665.764 128.271 668.724H128.248Z" fill="black"/>
<path d="M233.852 466.456C233.697 483.547 229.298 500.127 224.9 516.528C224.122 519.466 228.654 520.712 229.432 517.774C233.941 500.972 238.384 483.948 238.539 466.434C238.561 463.407 233.852 463.385 233.83 466.434L233.852 466.456Z" fill="black"/>
<path d="M269.817 466.434C266.995 485.283 275.281 502.553 283.567 518.887C284.944 521.602 289.009 519.199 287.632 516.506C280.013 501.484 271.749 485.061 274.348 467.68C274.792 464.72 270.261 463.43 269.817 466.434Z" fill="black"/>
<path d="M330.216 459.735C332.126 467.636 334.436 475.536 338.613 482.59C342.433 489.044 347.631 494.786 350.053 501.996L354.362 500.171L353.962 499.481C352.474 496.833 348.409 499.214 349.897 501.863L350.297 502.552C351.586 504.845 355.451 503.309 354.607 500.728C352.207 493.517 347.409 487.753 343.433 481.411C339.035 474.379 336.724 466.501 334.792 458.489C334.081 455.529 329.527 456.798 330.26 459.735H330.216Z" fill="black"/>
<path d="M266.018 418.031C276.436 421.681 286.832 425.331 297.251 428.98C300.116 429.982 301.36 425.42 298.495 424.44C288.076 420.791 277.68 417.141 267.262 413.491C264.396 412.49 263.152 417.052 266.018 418.031Z" fill="black"/>
<path d="M403.855 418.254C409.586 434.321 417.938 449.232 428.601 462.54C430.489 464.898 433.821 461.56 431.933 459.201C421.826 446.561 413.851 432.229 408.409 416.985C407.387 414.137 402.833 415.361 403.877 418.231L403.855 418.254Z" fill="black"/>
<path d="M143.642 471.419C150.395 464.431 157.881 458.289 166.056 453.059L162.591 450.389C154.394 478.763 153.372 508.895 159.57 537.781C160.214 540.741 164.745 539.494 164.101 536.535C158.104 508.472 159.17 479.208 167.122 451.657C167.678 449.721 165.412 447.874 163.657 448.987C155.149 454.439 147.308 460.826 140.288 468.081C138.178 470.262 141.51 473.6 143.62 471.419H143.642Z" fill="black"/>
<path d="M111.01 539.917C116.964 531.104 123.45 522.67 130.425 514.636C132.402 512.344 129.092 509.006 127.093 511.298C119.851 519.621 113.121 528.389 106.945 537.536C105.235 540.051 109.322 542.41 111.01 539.917Z" fill="black"/>
<path d="M197.178 382.18C198.111 397.223 195.356 412.334 189.003 426.02C187.737 428.758 191.802 431.161 193.068 428.402C199.777 413.959 202.865 398.091 201.887 382.18C201.709 379.153 197 379.131 197.178 382.18Z" fill="black"/>
<path d="M132.447 408.684C150.973 395.131 162.902 375.259 173.765 355.452C175.231 352.782 171.166 350.401 169.699 353.071C159.259 372.076 147.863 391.593 130.07 404.612C127.649 406.392 130.003 410.487 132.447 408.684Z" fill="black"/>
<path d="M92.6389 341.343C104.634 341.788 116.519 339.207 127.315 333.955C130.047 332.62 127.648 328.547 124.938 329.882C114.897 334.778 103.79 337.026 92.6389 336.625C89.6178 336.514 89.6178 341.232 92.6389 341.343Z" fill="black"/>
<path d="M174.497 310.766C184.893 310.454 194.312 305.915 202.975 300.462C212.682 294.342 222.079 287.599 231.409 280.901L228.188 277.674C214.793 297.28 200.731 317.108 181.45 331.396C179.028 333.176 181.383 337.271 183.827 335.468C203.797 320.669 218.369 300.396 232.253 280.055C233.541 278.164 230.942 275.449 229.032 276.828C220.213 283.171 211.35 289.469 202.22 295.344C193.823 300.774 184.715 305.737 174.497 306.048C171.476 306.137 171.454 310.855 174.497 310.766Z" fill="black"/>
<path d="M224.989 360.838C246.003 345.216 263.796 325.61 277.236 303.089C278.791 300.485 274.726 298.104 273.171 300.707C260.176 322.494 242.96 341.611 222.612 356.743C220.213 358.524 222.545 362.641 224.989 360.816V360.838Z" fill="black"/>
<path d="M290.32 274.536C290.876 295.544 297.384 316.085 309.113 333.51C310.801 336.024 314.889 333.665 313.178 331.128C301.894 314.371 295.563 294.743 295.007 274.536C294.919 271.51 290.209 271.487 290.298 274.536H290.32Z" fill="black"/>
<path d="M355.251 358.323C340.479 339.34 332.327 315.595 332.127 291.538L327.506 292.161C330.416 300.729 334.881 308.941 338.857 317.064C342.834 325.187 346.899 332.953 351.497 340.587C360.538 355.608 371.49 369.428 385.506 380.11C387.928 381.957 390.26 377.862 387.883 376.037C374.311 365.689 363.804 352.003 355.096 337.426C350.764 330.172 346.854 322.672 343.123 315.083C339.391 307.495 334.859 299.216 332.06 290.915C331.238 288.467 327.417 288.779 327.44 291.538C327.662 316.953 336.37 341.632 351.941 361.661C353.807 364.042 357.117 360.682 355.273 358.323H355.251Z" fill="black"/>
<path d="M403.322 354.629C418.605 374.057 441.241 386.697 465.654 389.969C468.653 390.369 468.631 385.651 465.654 385.251C442.463 382.157 421.093 369.673 406.654 351.291C404.788 348.91 401.456 352.27 403.322 354.629Z" fill="black"/>
<path d="M350.164 261.74C357.361 262.719 363.803 266.124 370.623 268.372C377.798 270.731 385.373 271.398 392.859 272.044C395.88 272.311 395.857 267.593 392.859 267.326C385.506 266.703 378.175 265.991 371.156 263.587C364.58 261.34 358.361 258.135 351.408 257.2C348.453 256.8 347.165 261.34 350.164 261.74Z" fill="black"/>
<path d="M241.605 250.19C220.302 248.989 198.244 250.457 179.006 260.583C176.319 261.985 178.695 266.08 181.383 264.656C199.865 254.93 221.146 253.773 241.605 254.908C244.626 255.086 244.626 250.368 241.605 250.19Z" fill="black"/>
<path d="M303.737 373.456C302.826 370.808 301.649 368.249 300.094 365.912C299.405 364.888 298.65 363.887 297.873 362.93C297.184 362.106 295.296 360.615 296.051 359.436H291.986C293.497 362.663 294.541 366.045 295.207 369.539L299.516 367.714C296.962 362.462 292.675 358.212 290.32 352.849C289.809 351.669 289.365 350.334 289.187 349.043C289.12 348.487 289.054 348.109 289.387 347.841C289.765 347.53 292.253 348.331 292.875 348.442C296.651 349.11 300.449 349.755 304.226 350.423C308.002 351.091 311.512 351.691 315.133 352.315C318.754 352.938 322.619 353.182 325.862 354.807C327.328 355.541 328.083 356.587 329.15 357.745C329.572 358.212 329.105 358.701 329.638 357.923C330.305 356.943 329.394 357.811 329.172 357.9C328.35 358.256 327.55 358.88 326.773 359.302C323.663 360.994 320.375 362.262 317.021 363.375C311.312 365.289 303.182 366.157 300.849 372.677C300.227 374.413 302.115 376.015 303.737 375.57C309.979 373.879 316.51 372.076 322.352 369.228C324.574 368.137 326.64 366.468 327.417 364.02C327.772 362.93 327.75 361.795 327.928 360.682C328.128 359.458 329.061 358.701 329.216 357.5C329.35 356.476 329.127 355.386 328.128 354.829L327.884 354.696C326.706 354.05 324.64 354.518 324.418 356.098V356.276C324.218 357.567 324.685 358.768 326.04 359.169C327.128 359.503 327.972 359.213 328.794 358.479C329.616 357.745 329.661 356.498 329.172 355.63C327.661 352.938 322.663 353.049 319.931 352.715C316.221 352.27 312.467 352.07 308.757 351.536C305.048 351.002 301.605 350.045 298.184 348.62C294.763 347.196 291.608 345.95 287.921 345.839V350.556C296.184 350.668 304.803 351.691 312.867 353.561C314.577 353.961 316.266 354.429 317.887 355.096C318.798 355.475 319.753 356.254 320.686 356.498C321.664 357.277 321.664 356.921 320.664 355.475C320.375 355.808 320.042 356.142 319.709 356.432C317.088 358.746 313.445 359.614 310.157 360.482C307.602 361.149 308.091 365.177 310.779 365.111C315.999 364.977 321.153 364.154 326.151 362.618C328.55 361.884 328.261 357.633 325.529 357.989C316.71 359.124 309.513 364.688 300.938 366.602L303.826 368.249C303.448 366.579 302.493 365.311 301.382 364.042C300.872 363.464 300.205 362.908 299.872 362.218C299.405 361.305 299.694 360.46 299.65 359.48C299.516 357.322 298.139 355.942 296.695 354.473C294.763 352.537 292.852 350.601 290.92 348.665L288.632 352.604C298.739 355.141 308.935 357.255 319.198 358.969V354.429C315.244 356.075 310.335 354.874 306.247 354.251C301.627 353.539 297.073 352.582 292.541 351.447C289.587 350.712 288.387 355.096 291.297 355.986C298.05 358.078 304.803 360.193 311.245 363.152L312.445 358.746C307.425 359.369 302.56 358.88 297.784 357.233C295.296 356.365 293.541 360.393 295.962 361.55C299.072 363.019 302.049 364.732 304.892 366.668L306.092 362.262L302.382 362.685L303.582 367.091C305.825 366.134 308.18 365.623 310.623 365.534C313.644 365.4 313.667 360.949 310.623 360.816C307.58 360.682 304.67 359.747 302.049 358.056L299.672 362.129C300.583 362.551 301.249 363.019 301.916 363.775L302.382 360.059L301.982 360.215L304.248 361.951L304.137 361.506C304.181 358.479 299.472 358.457 299.428 361.506C299.428 362.151 299.472 362.596 299.694 363.197C300.05 364.154 300.872 364.955 301.96 364.933C303.048 364.91 303.848 364.688 304.737 364.132C306.07 363.308 306.247 361.572 305.203 360.415C304.292 359.391 303.248 358.612 302.004 358.034C299.294 356.765 297.029 360.437 299.628 362.106C302.937 364.243 306.647 365.355 310.579 365.511V360.793C307.269 360.927 304.204 361.684 301.16 362.997C299.05 363.909 300.072 367.648 302.36 367.403L306.07 366.98C308.38 366.713 309.291 363.976 307.269 362.574C304.426 360.638 301.449 358.924 298.339 357.455L296.518 361.773C301.627 363.553 307.047 364.132 312.423 363.464C314.444 363.219 315.999 360.17 313.622 359.058C306.803 355.92 299.694 353.628 292.541 351.402L291.297 355.942C296.362 357.21 301.494 358.256 306.692 358.991C311.134 359.636 316.155 360.727 320.464 358.924C322.308 358.145 323.063 354.807 320.464 354.384C310.201 352.671 300.005 350.556 289.898 348.019C287.632 347.463 285.922 350.267 287.61 351.958C289.298 353.65 290.853 355.208 292.475 356.854C293.119 357.5 294.43 358.39 294.785 359.191C295.185 360.103 294.807 361.327 294.985 362.307C295.518 365.311 298.717 366.668 299.317 369.45C299.605 370.741 301.027 371.364 302.204 371.097C310.312 369.294 317.243 363.709 325.529 362.663L324.907 358.034C320.309 359.458 315.621 360.237 310.779 360.371L311.401 364.999C315.71 363.864 320.309 362.529 323.53 359.258C324.885 357.878 326.173 355.986 325.04 354.095C323.974 352.315 321.308 351.38 319.487 350.645C314.844 348.754 309.846 348.131 304.914 347.419C299.272 346.617 293.608 345.883 287.899 345.794C284.855 345.75 284.878 350.423 287.899 350.512C291.097 350.623 293.985 351.936 296.895 353.138C300.05 354.429 303.204 355.363 306.58 355.92C309.957 356.476 313 356.699 316.221 357.01C319.442 357.322 323.263 357.388 326.284 358.657L324.885 357.567L325.107 357.967L325.484 355.119L325.285 355.274L327.573 354.673L327.306 354.584L328.95 357.478V357.299C327.817 357.767 326.662 358.234 325.507 358.701L325.751 358.835L324.663 356.165C324.551 356.899 323.752 357.7 323.53 358.479C323.241 359.48 323.263 360.504 323.108 361.528C322.73 363.887 320.775 364.777 318.731 365.623C313.445 367.759 307.958 369.472 302.471 370.964L305.359 373.857C306.492 370.719 311.268 370.007 314.022 369.183C317.932 368.004 321.797 366.713 325.529 365.066C327.35 364.265 329.127 363.353 330.838 362.329C332.304 361.439 333.926 360.504 334.103 358.635C334.437 355.363 331.105 352.226 328.506 350.824C324.818 348.798 320.42 348.42 316.355 347.708C311.845 346.929 307.336 346.15 302.826 345.349C298.317 344.548 293.785 343.279 289.298 343.035C285.655 342.834 284.122 346.039 284.478 349.243C285.366 357.322 292.03 363.019 295.407 370.007C296.629 372.544 300.183 370.674 299.716 368.182C298.961 364.265 297.695 360.549 296.007 356.943C295.207 355.252 292.808 355.586 291.942 356.943C290.053 359.859 291.586 362.729 293.563 365.066C296.007 367.959 297.917 371.008 299.161 374.591C300.161 377.439 304.692 376.216 303.693 373.345L303.737 373.456Z" fill="black"/>
<path d="M460.455 663.873C467.719 673.086 476.582 680.964 486.534 687.195C489.111 688.798 491.488 684.725 488.911 683.123C479.292 677.114 470.829 669.459 463.787 660.535C462.988 659.533 461.277 659.711 460.455 660.535C459.478 661.514 459.655 662.871 460.455 663.873Z" fill="black"/>
<path d="M486.668 602.14C464.898 587.897 442.018 572.52 430.089 548.507L426.868 551.734C441.463 560.881 458.012 566.333 475.161 567.757C478.182 568.002 478.16 563.284 475.161 563.039C458.834 561.682 443.129 556.363 429.245 547.662C427.135 546.326 425.025 548.886 426.024 550.889C438.286 575.613 461.877 591.547 484.291 606.235C486.846 607.904 489.2 603.809 486.668 602.162V602.14Z" fill="black"/>
</g>
<defs>
<clipPath id="clip0_1436_10225">
<rect width="411" height="511" fill="white" transform="translate(79 226)"/>
</clipPath>
</defs>
</svg>
