<svg width="18" height="17" viewBox="0 0 18 17" fill="none" xmlns="http://www.w3.org/2000/svg">
<g clip-path="url(#clip0_723_9543)">
<path d="M17.6722 10.1549C17.4826 9.65286 17.2195 9.1912 16.8678 8.78512C16.6765 8.56406 16.4612 8.36385 16.2634 8.148C16.2321 8.11412 16.2264 8.04767 16.2264 7.99642C16.2247 5.92826 16.2269 3.85967 16.2199 1.79151C16.2195 1.65687 16.1708 1.50791 16.1012 1.39151C16.0099 1.23951 15.8369 1.20563 15.6647 1.20563C15.0538 1.2052 14.4429 1.2052 13.832 1.2052C13.8011 1.2052 13.7702 1.20259 13.7215 1.20042C13.7215 1.00324 13.7076 0.80911 13.7246 0.618016C13.7524 0.309225 13.6385 0.101627 13.3424 0H13.3106C13.2785 0.0104233 13.2459 0.029967 13.2137 0.0304013C12.7493 0.03127 12.2849 0.0295327 11.8206 0.0286641C11.5684 0.0773063 11.4149 0.257977 11.414 0.510308C11.4136 0.735713 11.414 0.961117 11.414 1.19564H6.10377C6.10377 1.02149 6.09725 0.849066 6.10508 0.677082C6.11943 0.356564 6.02116 0.109445 5.69245 0H5.66114C5.62288 0.0104233 5.58505 0.029967 5.54679 0.0304013C5.08894 0.0317043 4.63066 0.0304014 4.17238 0.0295327C3.93671 0.0677516 3.80062 0.216284 3.79757 0.4469C3.79453 0.693585 3.79671 0.94027 3.79671 1.19825C3.74366 1.20085 3.69844 1.2052 3.65322 1.2052C3.05841 1.20563 2.46273 1.21388 1.86792 1.20216C1.51573 1.19521 1.27658 1.43364 1.30485 1.76458C1.32441 1.99433 1.30789 2.22712 1.30702 2.45903C1.30702 2.46859 1.30224 2.47858 1.29398 2.51072C1.04962 2.51072 0.799169 2.5016 0.549592 2.51463C0.43089 2.52114 0.301319 2.54763 0.200444 2.60583C0.0547853 2.69052 0 2.83558 0 3.01495C0.00391323 7.04095 0.00260882 11.0665 0.00304363 15.0925C0.00304363 15.4291 0.176965 15.6015 0.51959 15.602C3.44278 15.6024 6.36596 15.6037 9.28914 15.5981C9.45524 15.5981 9.57438 15.655 9.68916 15.7566C10.357 16.3472 11.1314 16.7155 12.0036 16.9032C12.4432 16.9978 12.885 17.0195 13.3233 16.9835C13.9242 16.934 14.5085 16.7933 15.062 16.5305C15.5521 16.2973 15.9912 16.0011 16.3934 15.6376C17.1674 14.9392 17.6474 14.0724 17.8883 13.0708C17.9574 12.7833 17.9648 12.4798 17.9874 12.1827C18.0409 11.483 17.9187 10.8085 17.6722 10.1549ZM12.3954 0.977621H12.7884V2.64275H12.3954V0.977621ZM4.75197 0.986741H5.14807V2.64796H4.75197V0.986741ZM2.2675 2.15936H3.79671V2.3548C3.79714 2.61799 3.79714 2.88118 3.79714 3.14437C3.79714 3.39583 3.98584 3.59865 4.24194 3.60213C4.70544 3.60821 5.16894 3.60473 5.63245 3.60473C5.88507 3.60473 6.10116 3.38758 6.10377 3.0675C6.10638 2.77304 6.10682 2.47814 6.10812 2.18369C6.10812 2.17891 6.11247 2.17457 6.11899 2.16154H11.4384C11.4384 2.46034 11.444 2.75827 11.4362 3.0562C11.4319 3.23861 11.4606 3.40235 11.624 3.50658C11.694 3.55131 11.7784 3.59648 11.8575 3.59822C12.2945 3.60821 12.7324 3.59127 13.1689 3.60994C13.5133 3.62471 13.7459 3.40365 13.7459 3.03579C13.7454 2.75697 13.7467 2.47814 13.7476 2.19932C13.7476 2.18933 13.7537 2.17978 13.7602 2.1611H15.2716V3.91135H2.2675V2.15936ZM2.26533 4.87942H15.269V7.45919C13.3241 6.64139 11.4627 6.71131 9.80482 8.08328C8.14778 9.45395 7.63689 11.2442 8.12474 13.3358H2.26533V4.87942ZM0.957438 14.6482V3.48052H1.30789V3.6638C1.30789 7.01099 1.30876 10.3586 1.30615 13.7062C1.30572 13.9008 1.32485 14.0819 1.49659 14.2005C1.56268 14.2465 1.64921 14.2891 1.72661 14.2895C3.9128 14.2934 6.09856 14.2943 8.28431 14.2878C8.46041 14.2869 8.58172 14.3173 8.63737 14.4975C8.65303 14.5488 8.69172 14.5931 8.72477 14.6482H0.957438ZM16.0621 14.6335C15.189 15.6185 14.0711 16.101 12.7545 16.0389C10.697 15.9416 9.10261 14.2912 8.91565 12.3855C8.79782 11.1829 9.14566 10.1254 9.94265 9.23332C10.7401 8.34039 11.758 7.89176 12.9637 7.89349C15.2738 7.88264 16.9056 9.68934 17.0408 11.6055C17.1213 12.7469 16.8239 13.7744 16.0621 14.6335Z" fill="black"/>
<path d="M5.66064 0C5.62238 0.0104233 5.58455 0.029967 5.54629 0.0304013C5.08844 0.0317043 4.63016 0.0304013 4.17188 0.0295327C4.17753 0.0204123 4.1784 0.0104233 4.17492 0L5.66064 0Z" fill="#3F3F3F"/>
<path d="M13.3104 0C13.2782 0.0104233 13.2456 0.029967 13.2134 0.0304013C12.7491 0.03127 12.2847 0.0295327 11.8203 0.0286641C11.8238 0.0195437 11.8251 0.00998901 11.8247 0L13.3104 0Z" fill="#3F3F3F"/>
<path d="M15.4199 9.61706C15.4199 9.74257 15.3504 9.88893 15.2682 9.99056C14.9582 10.3732 14.6277 10.7393 14.3099 11.1158C14.009 11.472 13.7181 11.8359 13.4168 12.1916C13.2172 12.427 13.0207 12.5273 12.7216 12.3519C12.0637 11.9671 11.4006 11.5914 10.7415 11.2088C10.5575 11.1024 10.4567 10.8557 10.5106 10.6763C10.5732 10.4696 10.7441 10.2998 10.971 10.3276C10.9771 10.315 10.9832 10.3028 10.9893 10.2907C11.1467 10.368 11.3084 10.4375 11.4602 10.5252C11.9054 10.7814 12.3459 11.0472 12.7916 11.303C12.8255 11.3226 12.9068 11.313 12.9311 11.2861C13.1246 11.0698 13.3107 10.8466 13.4977 10.6242C13.6938 10.3906 13.8877 10.1547 14.0829 9.9202C14.2282 9.74518 14.3782 9.57363 14.5173 9.39339C14.6421 9.23226 14.8312 9.13237 14.9773 9.16929C15.2704 9.24312 15.4195 9.3695 15.4199 9.61706Z" fill="#010101"/>
<path d="M13.1826 13.303C13.0774 13.7794 12.9765 14.2567 12.8665 14.7319C12.8196 14.9351 12.6443 15.1358 12.3 15.0971C12.1286 15.078 11.8956 14.8083 11.9243 14.6198C11.9647 14.3536 12.0369 14.0926 12.0947 13.8294C12.153 13.5658 12.2169 13.3039 12.266 13.0385C12.3139 12.7818 12.4787 12.6337 12.7422 12.6333C13.1017 12.6333 13.2731 12.8943 13.1826 13.303Z" fill="#010101"/>
</g>
<defs>
<clipPath id="clip0_723_9543">
<rect width="18" height="17" fill="white"/>
</clipPath>
</defs>
</svg>
